<svg width="375" height="812" viewBox="0 0 375 812" fill="none" xmlns="http://www.w3.org/2000/svg">
<g clip-path="url(#clip0_1_3)">
<rect width="812" height="375" transform="translate(375 3.05176e-05) rotate(90)" fill="#AEAFF7"/>
<circle opacity="0.4" cx="91" cy="429" r="196" fill="#FCDDEC"/>
<g clip-path="url(#clip1_1_3)">
<path d="M210.069 408.25L209.697 434.658C209.697 434.658 251.403 465.134 259.698 516.689C267.994 568.243 266.265 646.157 257.501 696.199C248.738 746.241 231.63 845.377 229.301 876.658C226.972 907.939 232.423 939.076 226.024 951.919C219.625 964.763 211.234 969 211.234 969C211.234 969 196.54 834.634 196.083 828.26L181.737 628.896C181.737 628.896 171.233 546.385 178.7 529.376C186.167 512.368 207.656 505.79 207.656 505.79L179.697 506.882L210.069 408.25Z" fill="#954441"/>
<path d="M237.297 486.093L243.78 476.49C243.576 476.99 243.26 477.436 242.856 477.794C242.452 478.152 241.971 478.412 241.451 478.554C232.519 481.015 189.829 494.543 164.931 533.95C137.067 578.122 108.063 650.443 96.502 699.909C84.9412 749.375 61.6875 847.274 51.6033 876.946C41.519 906.619 24.1718 933.206 25.0001 947.49C25.2482 952.928 26.468 958.278 28.6016 963.287C28.8646 963.886 29.2892 964.401 29.8281 964.773C30.367 965.146 30.9988 965.361 31.6529 965.394C32.307 965.428 32.9575 965.279 33.5317 964.964C34.1059 964.649 34.5812 964.18 34.9043 963.611C47.9177 940.456 98.5309 850.455 101.064 845.498L192.47 667.848L192.554 667.692C194.067 665.111 234.572 595.671 234.38 577.426C234.296 569.408 231.054 562.146 227.381 556.492C226.967 555.847 226.775 555.084 226.834 554.319C226.892 553.554 227.199 552.83 227.706 552.254C228.213 551.679 228.894 551.285 229.646 551.131C230.397 550.978 231.178 551.073 231.871 551.403L237.789 554.212C238.299 554.453 238.859 554.568 239.422 554.548C239.985 554.528 240.536 554.373 241.027 554.097C241.518 553.821 241.936 553.431 242.246 552.96C242.556 552.49 242.748 551.951 242.807 551.391L239.578 495.803C240.07 491.758 238.846 482.311 237.297 486.093Z" fill="#954441"/>
<path d="M263.708 536.074C259.326 468.015 209.889 432.497 209.889 432.497L210.273 405.417L186.864 393.942L163.454 405.417L163.838 432.497C163.838 432.497 114.317 468.015 109.935 536.074C105.554 604.133 108.375 643.72 108.375 643.72H265.268C265.268 643.72 268.09 604.121 263.708 536.074Z" fill="#EF5DA8"/>
<path opacity="0.1" d="M272.772 537.095C248.762 456.972 209.889 432.461 209.889 432.461L210.273 405.382L186.864 393.906L163.454 405.382L155.23 444.813C155.23 444.813 142.313 435.69 92.3601 537.095C55.5407 611.912 30.078 800.557 30.078 800.557L174.366 765.219C175.986 764.809 177.63 764.5 179.288 764.294C186.41 763.429 193.601 763.276 200.753 763.838C202.435 763.981 204.107 764.225 205.76 764.571L350 793.727C350 793.727 303.949 641.26 272.772 537.095Z" fill="#FCDDEC"/>
<path d="M192.818 255.015C207.736 255.015 219.83 242.924 219.83 228.008C219.83 213.092 207.736 201 192.818 201C177.901 201 165.807 213.092 165.807 228.008C165.807 242.924 177.901 255.015 192.818 255.015Z" fill="#371B34"/>
<path d="M220.466 313.208C229.105 313.208 236.109 306.205 236.109 297.567C236.109 288.929 229.105 281.927 220.466 281.927C211.827 281.927 204.824 288.929 204.824 297.567C204.824 306.205 211.827 313.208 220.466 313.208Z" stroke="#EF5DA8" stroke-miterlimit="10"/>
<path d="M165.807 313.208C174.446 313.208 181.449 306.205 181.449 297.567C181.449 288.929 174.446 281.927 165.807 281.927C157.167 281.927 150.164 288.929 150.164 297.567C150.164 306.205 157.167 313.208 165.807 313.208Z" stroke="#EF5DA8" stroke-miterlimit="10"/>
<path d="M70.4639 407.458C70.4639 407.458 99.9122 376.825 130.549 358.124C161.186 339.423 181.45 328.896 181.45 313.255C181.45 297.615 180.046 274.076 181.45 265.458C182.759 257.356 192.843 249.529 201.199 258.124C203.924 260.933 204.8 264.126 204.8 271.424V313.195C204.8 313.195 201.751 325.439 242.328 350.106C282.905 374.773 310.372 400.232 314.742 405.405C319.112 410.579 325.09 438.031 294.454 432.053C263.817 426.075 228.798 414.948 228.798 414.948C228.798 414.948 183.863 406.258 176.264 399.836C171.2 395.735 165.572 392.384 159.553 389.885C159.553 389.885 155.267 383.127 165.772 384.315C176.276 385.504 194.968 381.915 214.068 389.489C233.168 397.063 274.549 391.085 286.482 397.891L226.985 392.562L219.782 384.363L197.093 359.72L172.278 364.87L146.72 388.685L158.341 389.753C158.341 389.753 174.715 389.753 176.132 389.141C177.549 388.529 197.357 374.185 210.502 381.267C223.648 388.349 222.027 398.239 222.027 398.239C222.027 398.239 201.619 400.46 192.507 398.239C183.395 396.019 191.09 406.534 166.024 410.771C166.024 410.771 80.7882 443.516 70.4158 424.119C70.4639 424.071 65.2297 416.797 70.4639 407.458Z" fill="#954441"/>
<path d="M225.137 359.444C220.335 347.561 227.129 340.011 227.129 340.011C227.129 340.011 220.551 344.668 215.533 348.929C208.906 354.571 195.232 354.799 195.232 354.799C165.808 355.999 156.288 341.931 156.288 341.931C156.288 341.931 156.588 355.699 146.924 364.738C136.359 374.665 143.562 389.057 144.211 390.737C144.703 390.821 158.617 390.509 158.617 390.509H159.709C159.121 389.441 156.576 384.051 166.036 385.132C170.742 385.672 177.104 385.24 184.415 385.3C191.715 381.567 202.555 377.593 210.827 382.023C216.829 385.24 219.71 389.033 221.115 392.214C223.948 392.214 226.781 392.358 229.602 392.478C230.709 390.295 231.617 388.017 232.316 385.672C235.089 372.648 229.975 371.34 225.137 359.444Z" fill="#EF5DA8"/>
<path d="M103.153 777.294C105.608 777.487 108.075 777.451 110.524 777.186C112.942 776.918 115.325 776.391 117.631 775.614C119.947 774.88 122.152 773.834 124.186 772.505C126.256 771.179 128.191 769.651 129.96 767.944C128.511 769.995 126.739 771.799 124.714 773.285C123.701 774.037 122.634 774.711 121.52 775.302C120.383 775.858 119.212 776.343 118.015 776.754C115.619 777.556 113.121 778.013 110.596 778.111C108.088 778.226 105.577 777.95 103.153 777.294V777.294Z" fill="#371B34"/>
<path d="M206.348 769.024C208.604 770.014 210.947 770.794 213.347 771.352C215.712 771.889 218.126 772.179 220.55 772.217C222.975 772.283 225.398 772.021 227.753 771.436C230.145 770.873 232.474 770.068 234.704 769.036C232.66 770.497 230.394 771.62 227.993 772.361C226.787 772.735 225.555 773.02 224.308 773.213C223.053 773.365 221.79 773.433 220.526 773.417C217.996 773.375 215.486 772.971 213.071 772.217C210.68 771.503 208.412 770.426 206.348 769.024V769.024Z" fill="#371B34"/>
<path d="M206.048 644.105L188.508 678.23L170.801 712.272L135.374 780.343C132.421 786.021 129.372 791.626 126.298 797.256L117.151 814.121L98.8789 847.862L80.5833 881.592L62.1315 915.201L80.067 881.28L98.2306 847.49C110.236 824.912 122.433 802.405 134.378 779.791L170.153 711.9L188.052 677.954L206.048 644.105Z" fill="#371B34"/>
<path d="M113.405 644.105C113.405 644.105 104.785 663.766 96.4659 699.932Z" fill="#371B34"/>
<path d="M216.288 445.629C227.176 441.284 220.37 422.174 223.995 418.441C235.436 406.666 228.305 397.351 227.777 396.679C226.3 394.278 225.1 394.278 224.979 391.59C224.379 388.889 225.724 386.92 226.564 384.22C226.828 383.127 225.64 376.345 225.16 375.445C223.227 370.104 217.957 367.043 214.979 365.35C214.556 365.114 214.208 364.764 213.974 364.34C213.741 363.915 213.631 363.433 213.659 362.95C213.983 358.148 210.153 349.146 199.553 346.145C198.905 345.653 195.663 334.55 187.548 332.833C184.723 332.531 181.873 332.531 179.048 332.833C178.712 332.893 176.767 333.313 176.143 331.825C175.381 329.716 173.879 327.954 171.917 326.867C169.906 325.657 167.731 324.744 165.459 324.155C163.47 323.885 161.462 323.785 159.456 323.855C158.039 323.853 156.636 324.131 155.326 324.671C152.505 325.871 147.571 327.96 146.623 329.472C145.71 329.928 145.29 330.877 144.57 331.525C143.828 332.332 143.296 333.309 143.021 334.37C142.942 334.737 142.769 335.077 142.519 335.357C142.268 335.637 141.949 335.847 141.593 335.966C139.552 336.35 133.933 339.855 133.285 341.188C131.616 342.904 129.792 344.512 129.023 346.925C127.991 350.19 127.187 353.395 128.927 356.756C129.564 357.956 130.716 359.505 129.143 360.981L124.642 364.702C122.119 367.189 120.602 370.518 120.38 374.053C120.056 378.47 123.741 384.352 128.015 386.248C128.507 386.476 129.215 386.464 129.215 387.256C129.218 387.363 129.188 387.467 129.131 387.557C127.734 389.553 127.174 392.018 127.571 394.422C127.908 395.943 127.722 397.534 127.043 398.936C126.043 399.848 125.26 400.972 124.75 402.225C122.889 405.994 121.616 409.931 122.277 414.228C122.162 415.082 122.211 415.949 122.421 416.785C123.249 419.918 125.386 422.03 127.907 423.855C130.632 425.823 133.837 426.255 137.031 426.664C137.421 426.778 137.825 426.843 138.231 426.856C139.54 427.336 140.92 427.732 141.148 429.436C141.046 429.834 140.884 430.215 140.668 430.565C139.801 432.403 139.593 434.485 140.08 436.458C140.455 439.576 141.938 442.456 144.258 444.573C147.223 446.993 150.87 448.428 154.69 448.678C155.034 448.708 155.379 448.708 155.723 448.678C156.407 448.606 157.019 448.678 157.079 449.542C157.427 452.232 158.313 454.824 159.684 457.164C160.08 457.968 159.912 458.485 159.096 458.809C158.548 459.233 158.088 459.759 157.739 460.357C152.001 468.399 144.318 474.041 135.518 478.266C128.627 481.579 121.112 483.187 113.909 485.228C112.754 485.847 111.498 486.254 110.199 486.428C105.686 487.749 101.016 488.553 96.994 491.23C92.0839 494.531 92.9963 496.991 97.4381 505.43C99.0073 508.344 100.768 511.151 102.708 513.832C104.173 515.921 105.397 518.501 108.039 519.594C109.06 519.81 110.115 519.81 111.136 519.594C111.592 519.594 112.048 519.462 112.504 519.45C113.619 519.475 114.709 519.112 115.585 518.422C116.461 517.732 117.07 516.758 117.306 515.669C117.747 511.95 116.746 508.205 114.509 505.202C113.072 502.898 111.239 500.866 109.095 499.2C110.773 499.001 112.466 498.973 114.149 499.116C114.737 498.816 115.35 499.116 115.986 498.864L122.12 498.072C122.697 497.748 123.393 498.144 123.969 497.76C124.939 497.252 125.973 496.877 127.043 496.643C127.72 496.81 128.433 496.764 129.083 496.511C132.241 495.407 135.398 494.387 138.471 493.006C145.126 490.071 151.422 486.382 157.235 482.011C161.915 478.617 165.91 474.369 169.012 469.492C169.925 467.885 170.697 466.203 171.317 464.462C171.605 463.694 171.917 462.866 172.926 462.902C174.653 462.824 176.37 462.583 178.052 462.182C179.769 461.893 179.865 462.001 179.48 463.754C178.324 469.185 176.37 474.415 173.682 479.274C170.216 485.528 165.397 490.929 159.576 495.083C154.102 499.056 148.183 502.285 142.529 505.994C141.136 506.894 139.48 507.434 138.459 508.851C136.767 510.159 135.026 511.395 133.417 512.8C131.727 514.06 130.272 515.608 129.119 517.373C127.619 519.99 127.847 521.49 130.68 524.083C131.244 524.587 131.881 525.067 132.457 525.523C135.362 527.644 138.295 529.737 141.256 531.801C144.054 533.734 146.575 536.146 149.9 537.275C150.804 537.521 151.757 537.521 152.661 537.275C152.882 537.22 153.107 537.188 153.334 537.179C154.175 537.234 155.018 537.08 155.786 536.732C156.554 536.383 157.225 535.85 157.738 535.181C158.251 534.511 158.591 533.725 158.727 532.893C158.863 532.06 158.792 531.207 158.52 530.409C158.57 529.501 158.339 528.6 157.859 527.828C156.319 525.31 154.23 523.173 151.749 521.574C150.296 520.578 148.712 519.822 147.211 518.91C147.326 518.752 147.473 518.62 147.643 518.523C147.813 518.425 148.001 518.365 148.195 518.345C151.879 517.211 155.426 515.673 158.772 513.76C164.964 510.309 170.717 506.121 175.903 501.289C178.651 498.915 181.167 496.287 183.418 493.438C184.09 492.502 190.621 483.283 193.562 480.091C193.562 480.091 200.981 469.684 204.979 466.527C219.481 454.992 217.08 446.601 216.288 445.629Z" fill="#371B34"/>
<path d="M154.799 448.27C153.418 448.858 151.99 448.39 150.597 448.522C145.003 447.766 139.552 443.504 138.784 438.523C138.436 437.971 138.784 437.323 138.484 436.722C138.333 434.194 138.961 431.68 140.285 429.52C140.369 429.433 140.481 429.377 140.602 429.364C140.723 429.351 140.844 429.381 140.945 429.448C141.003 429.495 141.05 429.553 141.083 429.619C141.116 429.686 141.135 429.758 141.137 429.832C141.17 430.35 141.079 430.869 140.873 431.345C140.019 433.689 140.118 436.275 141.149 438.547C141.605 439.995 142.268 441.37 143.118 442.628C144.983 444.894 147.497 446.535 150.321 447.333C151.747 447.907 153.263 448.224 154.799 448.27V448.27Z" fill="#F09A59"/>
<path d="M124.642 364.702C123.924 365.651 123.274 366.65 122.698 367.691C121.53 369.817 120.891 372.192 120.837 374.617C120.893 377.443 121.967 380.154 123.862 382.251C124.675 383.369 125.669 384.342 126.803 385.132C127.936 385.751 129.107 386.296 130.309 386.765C130.269 386.881 130.204 386.987 130.12 387.076C130.036 387.165 129.933 387.235 129.82 387.282C129.706 387.328 129.584 387.35 129.461 387.346C129.339 387.342 129.218 387.311 129.108 387.257C126.707 386.404 124.174 385.828 122.313 383.812C120.376 381.833 119.195 379.238 118.976 376.478C118.748 375.808 118.748 375.082 118.976 374.413C119.24 370.248 121.557 367.259 124.642 364.702Z" fill="#F09E54"/>
<path d="M133.261 341.152C133.345 341.656 132.769 342.292 132.265 342.784C131.174 343.868 130.302 345.152 129.695 346.565C128.516 349.058 128.098 351.843 128.495 354.571C128.845 355.977 129.382 357.329 130.092 358.592C130.752 360.141 130.932 360.069 129.071 360.993C124.137 353.443 126.862 345.317 133.261 341.152Z" fill="#F09E54"/>
<path d="M129.084 387.557C129.192 388.661 128.436 389.489 128.184 390.486C127.787 392.272 127.787 394.124 128.184 395.911C128.352 396.477 128.326 397.083 128.108 397.632C127.89 398.18 127.494 398.64 126.983 398.936C125.302 395.455 125.386 389.897 129.084 387.557Z" fill="#F09E54"/>
<path d="M140.837 429.472H140.669L137.391 427.348C136.959 426.255 138.087 426.736 138.424 426.4C139.804 426.568 140.549 427.792 141.665 428.428C142.109 428.68 141.737 429.136 141.569 429.472C141.522 429.524 141.464 429.565 141.4 429.594C141.336 429.622 141.267 429.636 141.197 429.636C141.127 429.636 141.058 429.622 140.993 429.594C140.929 429.565 140.872 429.524 140.825 429.472H140.837Z" fill="#F09A59"/>
<path d="M144.738 331.453C144.09 332.722 143.56 334.048 143.154 335.414C143.01 336.314 142.133 335.834 141.569 335.93C142.171 334.224 143.129 332.665 144.378 331.357C144.439 331.325 144.51 331.317 144.577 331.335C144.644 331.353 144.701 331.395 144.738 331.453V331.453Z" fill="#F09E54"/>
<path d="M197.296 348.102C197.434 348.517 197.432 348.965 197.291 349.379C197.151 349.793 196.878 350.15 196.516 350.394C195.941 350.773 195.54 351.365 195.399 352.039C195.063 353.239 193.839 353.491 192.878 353.923C192.326 354.187 192.266 353.623 192.218 353.215C191.776 351.065 190.657 349.113 189.025 347.646C188.689 347.298 188.376 346.913 187.824 347.298C187.272 347.682 187.476 348.21 187.824 348.654C188.172 349.098 188.497 349.434 188.857 349.854C189.845 350.902 190.503 352.218 190.751 353.636C190.998 355.055 190.824 356.516 190.249 357.836C189.233 359.397 187.641 360.493 185.819 360.885C185.231 361.065 184.367 361.089 184.619 361.966C184.883 363.022 185.819 362.482 186.336 362.302C189.109 361.401 191.534 360.093 192.218 356.888C192.249 356.6 192.36 356.326 192.538 356.097C192.716 355.868 192.955 355.693 193.227 355.592C196.432 354.584 197.56 351.703 199.085 349.17C201.005 349.314 202.868 349.892 204.531 350.861C206.195 351.83 207.617 353.164 208.689 354.764C209.013 355.184 212.29 359.481 212.194 360.225C211.21 360.585 212.411 362.086 212.363 363.01C212.315 363.934 211.438 364.606 210.442 365.543C207.488 365.675 204.919 366.587 203.239 369.144C202.783 369.663 202.434 370.268 202.214 370.923C201.993 371.579 201.905 372.271 201.954 372.961C202.026 373.441 202.23 373.885 202.807 373.849C203.383 373.813 203.431 373.453 203.515 373.009C204.139 369.264 206.144 367.463 209.913 367.211C212.307 367.332 214.639 368.015 216.72 369.204C217.547 369.595 218.225 370.244 218.653 371.052C222.123 379.455 220.166 387.485 217.453 395.539C216.117 395.802 214.736 395.698 213.455 395.239C212.565 394.995 211.651 394.85 210.73 394.807C210.238 394.807 209.709 394.807 209.649 395.407C209.589 396.007 210.106 396.247 210.67 396.271C211.649 396.292 212.609 396.552 213.465 397.029C214.321 397.507 215.047 398.186 215.58 399.008C216.055 399.653 216.412 400.376 216.636 401.145C216.87 401.797 216.87 402.509 216.636 403.161C216.144 403.953 215.436 403.029 214.872 402.921C212.471 402.513 207.092 404.422 207.092 404.422C206.732 405.286 222.699 416.869 222.315 417.625C218.437 425.896 223.359 438.547 217.621 442.892C199.541 456.588 154.654 424.779 137.187 424.779C121.172 424.779 121.064 405.754 126.947 402.129C127.223 401.961 128.519 404.11 129.684 405.178C133.045 408.203 142.649 410.459 144.246 406.858C144.03 406.654 142.421 405.478 142.637 405.274L144.81 403.857C145.17 403.629 144.534 402.345 144.078 402.561C143.622 402.777 143.082 403.137 142.589 403.437C140.188 404.914 134.87 404.542 132.985 402.525C131.868 401.3 130.985 399.88 130.38 398.336C129.429 396.035 129.187 393.502 129.684 391.062C130.284 388.313 131.797 386.897 134.63 386.789C136.023 386.789 137.475 387.101 138.544 385.408C141.149 388.229 143.982 386.993 146.695 386.369C147.779 385.97 148.789 385.394 149.684 384.664C150.201 384.34 150.885 383.932 150.369 383.188C149.852 382.443 149.324 383.056 148.856 383.392C147.112 384.821 144.903 385.561 142.649 385.468C140.705 385.336 138.003 383.668 137.415 381.735C137.235 381.123 137.331 380.079 136.335 380.331C135.338 380.583 135.891 381.531 135.999 382.215C136.067 382.85 136.341 383.444 136.779 383.908C137.571 384.688 137.031 385.108 136.323 385.108C133.706 385.108 131.028 385.684 128.555 384.292C126.474 383.07 124.768 381.302 123.621 379.178C121.629 375.71 122.049 372.289 123.777 368.976C125.242 365.687 129.624 362.806 129.9 362.542C131.845 360.633 132.301 360.789 134.45 362.278C135.136 362.745 135.913 363.062 136.73 363.209C137.547 363.356 138.386 363.329 139.192 363.13C140.392 362.938 140.536 363.322 140.5 364.33C140.392 367.055 142.217 368.976 143.442 371.136C143.487 371.248 143.557 371.347 143.646 371.428C143.735 371.509 143.841 371.569 143.956 371.604C144.071 371.638 144.192 371.647 144.311 371.628C144.43 371.609 144.543 371.564 144.642 371.496C145.266 371.088 144.894 370.632 144.642 370.164C143.91 368.868 143.19 367.559 142.445 366.287C141.245 364.162 142.445 360.081 144.714 359.193C145.314 358.953 146.047 358.677 145.555 357.848C145.062 357.02 144.522 357.632 144.03 357.848C143.126 358.245 142.343 358.875 141.761 359.673C140.248 361.846 137.847 362.11 135.446 361.041C133.935 360.598 132.649 359.598 131.845 358.245C130.728 355.844 129.612 353.443 130.188 350.61C130.75 347.824 132.081 345.25 134.03 343.18C135.419 341.778 136.99 340.567 138.7 339.579C139.276 339.195 144.03 337.515 144.882 334.778C145.314 332.809 147.283 332.041 148.136 330.469C149.168 328.692 151.161 327.756 152.83 326.94C154.138 326.104 155.648 325.64 157.199 325.595C157.884 325.703 159.997 325.595 160.393 325.595C160.789 325.595 161.329 325.595 161.785 325.595C164.593 325.683 167.32 326.552 169.661 328.104C171.384 329.279 172.704 330.955 173.442 332.905C173.85 334.034 176.443 334.826 177.044 334.682C178.496 334.358 179.973 334.154 181.438 333.902C181.822 333.998 183.959 334.13 184.679 334.274C186.691 334.634 188.605 335.415 190.293 336.568C191.982 337.72 193.407 339.217 194.475 340.96C194.715 341.344 195.003 341.704 195.267 342.076C196.624 343.612 196.468 345.497 196.468 347.322C196.444 348.054 196.996 347.226 197.296 348.102Z" fill="#F09E54"/>
<path d="M202.207 439.243C205.219 441.609 208.465 443.66 211.895 445.365C212.164 445.462 212.384 445.662 212.507 445.92C212.63 446.178 212.648 446.474 212.555 446.745C211.991 447.345 211.355 447.009 210.826 446.745C210.082 446.445 209.374 446.049 208.653 445.689C206.252 444.488 206.252 444.488 204.944 446.721C203.816 448.726 202.297 450.485 200.478 451.894C198.7 453.187 196.554 453.873 194.355 453.851C193.035 453.851 191.714 453.851 190.394 453.851C189.954 453.9 189.509 453.848 189.093 453.698C188.677 453.548 188.3 453.305 187.993 452.987C187.996 450.762 187.381 448.58 186.216 446.685C185.856 446.181 185.832 445.076 184.871 445.581C183.911 446.085 184.631 446.781 184.871 447.417C185.4 448.617 186.432 449.746 186.168 451.258C186.048 452.146 185.472 452.338 184.679 452.218C184.048 452.121 183.402 452.201 182.814 452.452C182.227 452.702 181.721 453.112 181.354 453.635C180.39 454.788 179.165 455.694 177.781 456.278C176.397 456.863 174.893 457.109 173.395 456.996C170.98 457.088 168.564 456.902 166.192 456.444C162.59 455.591 160.117 453.587 159.217 449.89C158.424 448.833 159.613 447.381 158.532 446.385C158.172 446.229 157.716 446.241 157.488 445.845C156.936 444.884 156.035 444.86 155.087 444.836C149.661 444.728 145.699 442.148 142.866 437.634C142.504 437.047 142.293 436.379 142.254 435.69C141.305 433.517 142.254 431.645 143.238 429.796C144.775 429.556 146.335 429.508 147.884 429.652C151.63 429.667 155.329 428.813 158.688 427.155C161.877 425.632 165.47 425.17 168.941 425.835C171.666 426.291 174.331 427.035 177.008 427.684C177.264 427.727 177.509 427.822 177.728 427.962C177.946 428.102 178.134 428.285 178.281 428.5C178.281 429.376 177.62 429.64 177.08 430C174.043 431.969 173.479 434.934 173.707 438.199C173.904 436.901 174.185 435.618 174.547 434.357C175.652 430.996 177.788 429.556 181.306 429.7C182.106 429.878 182.94 429.82 183.707 429.532C185.616 428.5 187.645 429.028 189.625 429.016C191.426 429.448 192.134 431.129 193.227 432.329C194.571 433.829 195.988 435.246 197.405 436.662C198.783 437.884 200.427 438.768 202.207 439.243V439.243Z" fill="#F09E54"/>
<path d="M188.053 452.999C190.697 453.572 193.424 453.649 196.096 453.227C200.61 452.567 203.035 449.218 205.028 445.581C205.82 444.116 206.444 443.9 207.873 444.716C209.268 445.724 210.865 446.417 212.555 446.745C211.991 449.146 211.883 451.546 210.598 453.827C209.31 456.024 207.424 457.81 205.16 458.976C201.69 460.873 198.101 462.577 194.043 462.673C191.33 462.854 188.623 462.254 186.24 460.945C184.595 459.997 184.511 459.3 185.928 458.1C187.536 456.732 187.632 454.823 188.053 452.999Z" fill="#F09A59"/>
<path d="M178.28 428.752C172.794 427.024 167.344 425.151 161.473 426.675C159.432 427.18 157.74 428.44 155.735 429.076C151.719 430.348 147.451 430.612 143.309 429.844C144.054 429.124 144.222 428.044 145.122 427.384C147.367 425.727 149.804 426.351 152.217 426.567C152.838 426.68 153.451 426.828 154.054 427.012C154.606 427.144 155.158 427.084 155.339 426.471C155.519 425.859 154.918 425.571 154.426 425.463C153.43 425.247 152.409 425.103 151.257 424.911C151.796 424.343 152.511 423.971 153.286 423.855C156.243 422.953 159.141 421.871 161.965 420.614C163.6 419.757 165.443 419.379 167.284 419.521C171.377 420.11 175.027 422.33 179.156 422.75C180.513 422.894 181.798 423.375 183.166 423.471H185.339C185.571 423.462 185.801 423.51 186.011 423.61C186.22 423.711 186.401 423.86 186.54 424.047C187.74 425.415 188.833 426.94 189.949 428.392C190.085 428.545 190.177 428.731 190.215 428.932C190.253 429.133 190.236 429.34 190.165 429.532C188.604 429.532 187.056 429.532 185.507 429.532C185.197 429.503 184.884 429.548 184.594 429.663C184.304 429.777 184.045 429.959 183.838 430.192C182.706 429.323 181.285 428.92 179.865 429.064C179.313 429.064 178.724 429.28 178.28 428.752Z" fill="#F09A59"/>
<path d="M225.088 414.924C224.379 415.657 223.251 416.125 223.299 417.325C222.999 417.481 222.615 417.325 222.351 417.625L218.161 414.216C217.961 413.288 217.989 412.325 218.242 411.409C218.495 410.494 218.966 409.653 219.613 408.959C220.247 409.711 220.591 410.664 220.586 411.647C220.586 412.104 220.766 412.44 221.294 412.428C221.822 412.416 221.918 412.044 221.978 411.599C222.029 410.271 221.65 408.962 220.898 407.866C220.55 407.206 220.238 406.534 219.914 405.862C219.542 403.501 218.905 401.19 218.017 398.972C217.789 398.396 217.465 397.772 217.813 397.171C219.577 396.283 221.63 395.971 223.071 394.447C223.731 394.315 224.091 394.759 224.451 395.203C227.38 399.424 228.523 404.631 227.633 409.691C227.488 410.728 227.074 411.708 226.432 412.536C226.156 413.46 225.292 413.988 225.088 414.924Z" fill="#F09A59"/>
<path d="M159.276 449.902C161.677 455.352 166.275 456.552 171.569 456.54C173.349 456.647 175.135 456.506 176.875 456.12C178.343 455.743 179.648 454.901 180.597 453.719C181.797 452.195 183.166 451.031 185.303 451.799C185.867 451.991 185.939 451.427 186.227 451.223C186.356 452.422 186.32 453.634 186.119 454.824C185.915 455.659 185.515 456.433 184.951 457.083C184.387 457.732 183.676 458.237 182.878 458.557C180.263 459.861 177.395 460.577 174.474 460.657C172.29 460.657 170.117 460.405 167.956 460.225C164.198 459.901 161.953 457.332 160.573 454.067C159.96 452.771 158.82 451.547 159.276 449.902Z" fill="#F09A59"/>
<path d="M217.465 395.526C217.326 394.151 217.506 392.763 217.993 391.469C220.59 384.885 220.654 377.572 218.173 370.944C219.59 370.884 219.998 372.228 220.911 372.9C222.274 374.684 223.378 376.652 224.188 378.746C224.995 381.091 225.215 383.598 224.83 386.048C224.445 388.498 223.466 390.817 221.979 392.802C221.655 394.266 220.418 394.59 219.242 394.986C218.654 395.178 218.065 395.346 217.465 395.526Z" fill="#F09A59"/>
<path d="M219.614 409.007C219.133 410.759 218.641 412.512 218.161 414.264C214.727 411.863 211.87 408.755 208.653 406.03C212.915 403.113 218.521 404.541 219.614 409.007Z" fill="#F09E54"/>
<path d="M190.153 429.484C188.749 427.429 187.226 425.457 185.591 423.579C185.471 423.507 185.435 423.447 185.471 423.375C185.507 423.303 185.555 423.279 185.603 423.279C186.277 423.201 186.959 423.316 187.571 423.609C188.183 423.902 188.699 424.362 189.061 424.935C191.758 428.664 194.749 432.172 198.005 435.426C199.349 436.758 200.802 437.971 202.206 439.243C201.251 439.243 200.307 439.045 199.433 438.66C198.558 438.276 197.774 437.714 197.128 437.01C194.595 434.682 192.482 431.993 190.153 429.484Z" fill="#3F3632"/>
<path d="M142.313 435.69C143.125 437.146 144.04 438.542 145.05 439.867C146.338 441.395 147.968 442.597 149.808 443.377C151.647 444.157 153.645 444.493 155.639 444.356C157.487 444.236 157.643 445.665 158.544 446.445C155.661 447.012 152.676 446.733 149.948 445.641C147.247 444.537 144.642 443.012 143.418 440.311C142.865 438.931 141.449 437.467 142.313 435.69Z" fill="#F09A59"/>
<path d="M113.837 517.613C114.966 511.935 112.529 507.722 109.299 503.797C108.387 502.693 107.33 501.684 106.394 500.604C106.082 500.256 105.542 499.764 106.274 499.332C106.826 498.996 107.474 498.828 107.907 499.572C109.443 501.973 111.916 503.617 113.357 506.186C114.942 509.007 116.118 511.827 115.758 515.116C115.703 515.67 115.494 516.198 115.155 516.639C114.815 517.081 114.359 517.418 113.837 517.613V517.613Z" fill="#F09E54"/>
<path d="M155.351 535.09C155.999 532.173 154.835 530.024 153.334 527.984C151.246 525.202 148.464 523.017 145.267 521.646C144.439 521.262 143.586 520.914 142.758 520.518C142.458 520.374 142.002 520.194 142.086 519.822C142.242 519.185 142.902 519.077 143.406 518.825C143.91 518.573 144.066 518.825 144.15 519.197C144.379 520.146 145.171 520.314 145.915 520.638C150.225 522.474 154.091 524.923 156.336 529.208C157.608 531.657 158.1 533.157 155.351 535.09Z" fill="#F09E54"/>
<path d="M226.108 412.836C228.665 406.594 227.308 400.832 223.995 395.299C224.451 394.506 225.195 394.903 225.832 394.843C228.313 398.29 229.46 402.521 229.061 406.75C229.016 409.142 228.088 411.434 226.456 413.184C226.144 413.256 225.976 413.196 226.108 412.836Z" fill="#F09E54"/>
<path d="M159.288 458.941C156.659 455.844 155.879 452.135 155.687 448.222C157.055 447.754 157.499 448.222 157.535 449.686C157.785 452.234 158.646 454.684 160.044 456.828C160.369 457.428 160.777 458.028 160.345 458.737C160.08 459.313 159.732 459.217 159.288 458.941Z" fill="#F09A59"/>
<path d="M195.952 471.268C195.507 469.479 195.027 467.667 194.607 465.89C194.403 465.014 194.067 464.69 193.058 464.834C191.455 465.067 189.822 464.973 188.256 464.558C187.5 464.378 186.984 463.874 187.224 463.238C187.56 462.337 188.16 463.154 188.568 463.334C190.341 464.05 192.281 464.25 194.163 463.91C195.363 463.742 196.204 464.09 196.288 465.446C196.408 467.451 197.632 469.227 197.488 471.292C197.258 471.441 196.99 471.518 196.716 471.513C196.443 471.509 196.176 471.424 195.952 471.268Z" fill="#F09A59"/>
<path d="M142.649 407.626C139.024 407.631 135.435 406.904 132.097 405.49C130.541 404.71 129.244 403.497 128.363 401.997C128.111 401.624 128.003 401.12 127.427 401.072C127.715 400.34 128.363 399.956 128.879 399.44C130.44 400.64 130.716 402.561 132.049 403.857C133.241 404.814 134.618 405.513 136.094 405.91C138.243 406.762 140.632 406.51 142.649 407.626Z" fill="#F09E54"/>
<path d="M196.084 471.076C196.504 471.364 197.38 470.632 197.452 471.304C194.452 475.415 190.779 478.991 186.588 481.879C186.143 482.179 185.783 482.731 185.099 482.563C184.907 482.167 185.267 481.915 185.351 481.591C189.502 478.724 193.132 475.168 196.084 471.076Z" fill="#F09E54"/>
<path d="M183.166 423.567C177.666 423.157 172.283 421.766 167.272 419.462C170.189 418.885 172.578 420.662 175.207 421.298C177.836 421.934 180.513 422.618 183.166 423.267C183.286 423.339 183.322 423.399 183.286 423.459C183.277 423.485 183.261 423.509 183.24 423.528C183.219 423.547 183.194 423.56 183.166 423.567Z" fill="#F09E54"/>
<path d="M169.708 463.082C168.16 466.683 166.875 470.368 163.706 472.961C163.68 472.968 163.653 472.97 163.627 472.965C163.6 472.96 163.576 472.949 163.555 472.932C163.533 472.916 163.516 472.895 163.505 472.87C163.494 472.846 163.489 472.819 163.49 472.793C165.459 469.624 167.535 466.527 168.292 462.782C168.322 462.671 168.375 462.568 168.449 462.479C168.523 462.391 168.615 462.32 168.719 462.271C168.822 462.222 168.936 462.196 169.051 462.195C169.166 462.194 169.28 462.218 169.384 462.266C169.84 462.398 169.84 462.734 169.708 463.082Z" fill="#EE8631"/>
<path d="M217.812 397.219C218.808 399.445 219.564 401.771 220.069 404.157C220.165 404.769 220.453 405.357 219.913 405.909C218.292 404.901 218.196 403.341 218.208 401.636C218.214 400.856 218.044 400.084 217.711 399.378C217.379 398.671 216.892 398.048 216.288 397.555C216.804 397.111 217.356 397.387 217.812 397.219Z" fill="#F09E54"/>
<path d="M169.709 463.082C169.48 461.881 168.892 462.41 168.328 462.782C167.308 461.977 166.011 462.53 164.871 462.097C163.892 461.79 162.934 461.421 162.001 460.993C161.437 460.693 161.269 460.333 161.617 459.793C161.965 459.253 162.47 459.265 162.818 459.697C164.474 461.485 166.743 461.677 168.928 462.097C169.709 462.121 170.321 462.145 169.709 463.082Z" fill="#F09A59"/>
<path d="M226.108 412.836L226.456 413.184C226.118 413.848 225.653 414.439 225.087 414.924C224.835 413.94 225.724 413.46 226.108 412.836Z" fill="#F09E54"/>
<path d="M183.862 421.538C184.559 421.298 185.399 421.85 185.999 421.118C186.408 421.394 186.66 421.778 185.999 421.814C185.339 421.85 184.499 422.09 183.862 421.538Z" fill="#F09E54"/>
<path d="M183.166 423.566V423.278H185.567C185.561 423.378 185.561 423.479 185.567 423.578L183.166 423.566Z" fill="#F09E54"/>
<path d="M142.649 405.274V405.898C142.301 405.898 141.869 405.898 141.881 405.502C141.893 405.106 142.361 405.286 142.649 405.274Z" fill="#F09A59"/>
<path d="M162.433 343.168C162.061 344.488 162.65 344.56 164.054 344.368C166.875 343.912 169.204 345.197 171.257 347.069C171.653 347.441 172.025 347.885 171.545 348.401C171.065 348.918 170.621 348.521 170.213 348.173C167.728 346.049 165.123 344.896 161.893 346.709C160.345 347.585 159.744 349.11 158.976 350.454C158.664 351.042 158.484 351.978 157.559 351.474C156.635 350.97 157.367 350.274 157.559 349.794C158.066 348.565 158.767 347.426 159.636 346.421C160.572 345.337 161.049 343.931 160.966 342.502C160.883 341.072 160.247 339.731 159.192 338.763C158.007 337.509 156.512 336.59 154.858 336.098C154.294 335.978 153.85 335.69 154.09 335.018C154.33 334.346 154.822 334.562 155.29 334.658C158.388 335.282 163.058 339.039 162.433 343.168Z" fill="#3F3632"/>
<path d="M175.244 385.768C172.734 385.084 169.949 384.087 168.641 380.967C168.532 380.598 168.319 380.269 168.027 380.02C167.735 379.771 167.377 379.612 166.996 379.562C162.266 378.674 159.709 375.625 158.845 371.004C158.737 370.44 158.437 369.803 159.241 369.587C160.045 369.371 160.153 370.056 160.309 370.632C160.525 371.412 160.789 372.168 161.006 372.936C161.87 376.069 164.391 377.174 167.14 378.026C167.86 378.254 167.944 377.858 167.896 377.342C167.895 376.191 168.065 375.046 168.401 373.945C168.509 373.428 168.713 372.864 169.409 373.032C170.105 373.2 170.033 373.777 169.901 374.293C169.505 375.726 169.395 377.223 169.577 378.698C169.961 381.951 172.843 383.739 175.796 384.16C176.468 384.244 177.404 383.751 177.645 384.856C177.765 385.468 177.068 385.768 175.244 385.768Z" fill="#3F3632"/>
<path d="M197.032 389.669C194.547 389.393 192.398 388.577 191.281 386.068C190.717 384.808 190.081 383.571 189.541 382.323C189.468 382.224 189.42 382.109 189.401 381.987C189.381 381.866 189.39 381.742 189.428 381.625C189.465 381.508 189.53 381.402 189.616 381.314C189.702 381.227 189.808 381.161 189.925 381.123C190.489 380.906 190.765 381.327 190.969 381.759C191.377 382.647 191.834 383.511 192.17 384.423C193.634 388.385 197.284 388.565 200.117 387.532C200.765 387.292 201.702 386.332 202.134 387.532C202.566 388.733 201.27 388.733 200.585 388.961C199.469 389.462 198.254 389.704 197.032 389.669V389.669Z" fill="#3F3632"/>
<path d="M178.28 428.752C179.737 428.448 181.241 428.448 182.698 428.752C183.574 428.884 183.898 429.268 183.826 430.108C183.649 430.257 183.435 430.355 183.207 430.393C182.979 430.431 182.746 430.407 182.53 430.325C177.32 429.052 174.967 432.629 174.522 436.998C174.438 437.851 175.051 439.399 173.706 439.399C172.362 439.399 173.106 437.779 173.118 436.998C173.214 433.253 174.702 430.325 178.28 428.752Z" fill="#3F3632"/>
<path d="M180.837 207.35C185.29 208.19 189.512 209.972 193.22 212.576C196.929 215.18 200.037 218.547 202.338 222.45C204.608 226.462 205.872 230.963 206.024 235.57C206.184 240.049 205.394 244.512 203.707 248.665C203.972 244.383 203.811 240.085 203.227 235.834C202.577 231.759 201.215 227.83 199.205 224.227C197.123 220.627 194.476 217.385 191.366 214.624C188.132 211.822 184.602 209.383 180.837 207.35V207.35Z" fill="#84455E"/>
<path d="M189.193 202.921C193.646 203.761 197.868 205.543 201.576 208.147C205.284 210.751 208.393 214.118 210.694 218.021C212.969 222.031 214.234 226.533 214.38 231.141C214.536 235.612 213.747 240.067 212.063 244.212C212.334 239.934 212.173 235.639 211.582 231.393C210.946 227.311 209.584 223.376 207.561 219.773C205.484 216.191 202.836 212.972 199.721 210.243C196.492 207.422 192.962 204.966 189.193 202.921V202.921Z" fill="#84455E"/>
<path d="M193.25 254.319C193.25 254.319 191.858 275.925 180.837 276.189C180.837 276.189 178.028 254.235 193.25 254.319Z" fill="#371B34"/>
<path d="M192.818 254.031C192.818 254.031 194.271 275.421 204.823 275.841C204.823 275.841 208.029 253.935 192.818 254.031Z" fill="#371B34"/>
<path d="M195.591 254.319C195.879 256.192 196.239 258.04 196.624 259.853C197.012 261.657 197.534 263.431 198.184 265.158C198.789 266.864 199.705 268.443 200.885 269.816C202.118 271.176 203.795 272.053 205.615 272.288C204.652 272.391 203.679 272.289 202.758 271.988C201.834 271.668 200.987 271.157 200.273 270.488C198.858 269.12 197.778 267.444 197.116 265.59C196.44 263.791 195.985 261.917 195.759 260.009C195.487 258.125 195.431 256.216 195.591 254.319V254.319Z" fill="#84455E"/>
<path d="M198.689 255.387C199.022 258.044 199.552 260.672 200.274 263.249C200.624 264.529 201.175 265.744 201.907 266.85C202.265 267.387 202.732 267.842 203.279 268.185C203.825 268.528 204.437 268.752 205.076 268.843C204.382 268.916 203.681 268.8 203.047 268.507C202.405 268.194 201.836 267.748 201.378 267.199C200.509 266.102 199.86 264.846 199.47 263.502C198.697 260.871 198.432 258.117 198.689 255.387V255.387Z" fill="#84455E"/>
<path d="M187.248 255.387C187.491 258.119 187.218 260.871 186.444 263.502C186.053 264.846 185.405 266.102 184.535 267.199C184.077 267.748 183.509 268.194 182.866 268.507C182.233 268.8 181.531 268.916 180.837 268.843C181.483 268.747 182.101 268.514 182.65 268.16C183.198 267.806 183.665 267.339 184.019 266.79C184.75 265.684 185.301 264.469 185.651 263.189C186.375 260.632 186.908 258.024 187.248 255.387V255.387Z" fill="#84455E"/>
<path d="M190.669 254.319C190.839 256.214 190.799 258.123 190.549 260.009C190.324 261.917 189.868 263.791 189.193 265.59C188.531 267.444 187.45 269.12 186.035 270.488C185.297 271.167 184.421 271.679 183.466 271.988C182.546 272.289 181.572 272.391 180.609 272.288C182.43 272.053 184.107 271.176 185.339 269.816C186.519 268.443 187.435 266.864 188.04 265.158C188.69 263.431 189.212 261.657 189.601 259.853C190.009 258.04 190.369 256.216 190.669 254.319Z" fill="#84455E"/>
<path d="M181.449 303.737C181.449 303.737 185.903 318.141 197.656 311.791C197.656 311.791 191.846 318.357 179.084 322.078C179.084 322.078 181.485 318.273 181.485 311.011L181.449 303.737Z" fill="#371B34"/>
<path d="M294.885 390.713C292.976 390.521 227.332 392.49 227.332 392.49C225.184 392.214 223.131 391.866 221.186 391.446C219.781 388.253 216.864 384.436 210.862 381.207C207.612 379.562 203.949 378.915 200.333 379.346L199.733 379.418C194.399 380.201 189.243 381.912 184.499 384.472C177.2 384.472 170.825 384.844 166.119 384.304C156.659 383.235 159.204 388.613 159.804 389.693H158.7L132.289 390.893C126.998 391.917 121.626 392.459 116.238 392.514C107.342 392.514 70.847 407.374 70.847 407.374C65.6008 416.785 70.847 424.059 70.847 424.059C81.1713 443.456 166.443 410.711 166.443 410.711C176.839 408.946 181.605 406.114 184.258 403.509C199.421 409.09 229.205 414.888 229.205 414.888C229.205 414.888 264.212 426.027 294.849 431.993C325.486 437.959 319.519 410.519 315.137 405.345C312.232 402.021 314.525 405.441 294.885 390.713ZM227.381 392.502L237.669 393.426C234.103 393.222 230.646 392.934 227.381 392.502V392.502Z" fill="#954441"/>
<path d="M144.522 390.773C141.671 390.777 138.821 390.937 135.987 391.254C133.154 391.53 130.345 391.998 127.583 392.514C122.007 393.591 116.542 395.179 111.257 397.255C109.948 397.771 108.615 398.264 107.331 398.876C106.046 399.488 104.738 400.076 103.501 400.712C100.968 401.985 98.5072 403.425 96.0102 404.805C93.5131 406.186 91.0281 407.614 88.6271 409.067C87.4266 409.787 86.1661 410.519 84.9656 411.275C84.3653 411.659 83.7771 412.059 83.2008 412.476C82.9007 412.68 82.6246 412.896 82.3485 413.124C82.2133 413.237 82.0923 413.366 81.9883 413.508C81.9553 413.535 81.9301 413.57 81.9153 413.61C81.9005 413.651 81.8967 413.694 81.9043 413.736C81.9043 413.808 82.0483 413.82 82.1324 413.808C82.2164 413.796 81.9283 413.808 81.8803 413.748C81.8714 413.702 81.8722 413.655 81.8825 413.61C81.8928 413.564 81.9125 413.521 81.9403 413.484C82.0468 413.336 82.1631 413.196 82.2884 413.064C82.5405 412.812 82.8167 412.572 83.0808 412.332C83.633 411.875 84.2092 411.455 84.7855 411.023C85.986 410.183 87.1865 409.379 88.315 408.622C90.716 407.05 93.117 405.55 95.578 404.061C100.426 400.983 105.54 398.348 110.86 396.187C116.225 394.126 121.783 392.61 127.451 391.662C133.086 390.688 138.817 390.39 144.522 390.773Z" fill="#371B34"/>
<path d="M160.093 390.533C162.545 392.39 165.12 394.078 167.8 395.587C170.45 397.133 173.183 398.531 175.988 399.776C178.797 400.976 181.63 402.177 184.535 403.089C187.44 404.001 190.418 404.817 193.395 405.598C199.325 407.254 205.292 408.743 211.258 410.291L220.202 412.584L229.134 414.984C226.109 414.444 223.131 413.784 220.07 413.208L211.078 411.191C205.076 409.823 199.073 408.322 193.071 406.75C190.093 405.934 187.14 405.094 184.187 404.121C181.249 403.124 178.375 401.95 175.579 400.604C169.987 397.961 164.777 394.573 160.093 390.533V390.533Z" fill="#371B34"/>
<path d="M184.787 385.324C188.988 386.344 193.19 387.316 197.416 388.169C201.642 389.021 205.82 389.873 210.141 390.497C214.388 391.148 218.669 391.549 222.963 391.698L235.916 392.226C240.238 392.094 244.548 392.046 248.87 392.07C253.191 392.094 257.513 392.166 261.823 392.43C266.133 392.694 270.455 393.03 274.728 393.63C276.872 393.945 278.997 394.382 281.091 394.939C283.218 395.415 285.191 396.418 286.829 397.855C286.018 397.15 285.076 396.612 284.056 396.271C283.046 395.907 282.016 395.602 280.971 395.359C278.871 394.895 276.747 394.55 274.608 394.326C270.335 393.822 266.037 393.582 261.739 393.438C257.441 393.294 253.131 393.222 248.822 393.246C244.512 393.27 240.202 393.342 235.916 393.51H235.856L222.915 392.874C218.581 392.695 214.264 392.213 209.997 391.434C205.723 390.689 201.498 389.789 197.296 388.769C193.094 387.748 188.916 386.596 184.787 385.324Z" fill="#371B34"/>
<path d="M202.302 298.395C201.766 299.495 200.974 300.451 199.992 301.182C199.01 301.913 197.868 302.398 196.66 302.596C195.749 302.726 194.83 302.791 193.911 302.788C193.43 302.788 192.878 302.788 192.878 302.188C192.878 301.588 193.49 301.552 193.923 301.564C196.001 301.739 198.067 301.112 199.697 299.812C200.348 299.225 200.881 298.52 201.27 297.735C201.462 297.351 201.75 297.135 202.158 297.315C202.566 297.495 202.482 297.915 202.302 298.395Z" fill="#371B34"/>
<path d="M202.159 280.498C202.121 280.684 202.011 280.847 201.854 280.953C201.697 281.059 201.504 281.098 201.318 281.063C200.464 280.952 199.597 281.119 198.845 281.538C198.093 281.958 197.496 282.607 197.14 283.391C196.924 283.763 196.636 284.291 196.072 283.943C195.508 283.595 195.844 283.163 196.072 282.743C196.511 281.821 197.212 281.048 198.087 280.521C198.962 279.994 199.973 279.735 200.994 279.778C201.474 279.802 202.062 279.802 202.159 280.498Z" fill="#371B34"/>
<path d="M183.971 280.498C184.009 280.684 184.118 280.847 184.275 280.953C184.433 281.059 184.625 281.098 184.811 281.063C185.665 280.952 186.532 281.119 187.284 281.538C188.036 281.958 188.634 282.607 188.989 283.391C189.205 283.763 189.493 284.291 190.057 283.943C190.622 283.595 190.286 283.163 190.057 282.743C189.618 281.821 188.917 281.048 188.042 280.521C187.167 279.994 186.156 279.735 185.135 279.778C184.667 279.802 184.067 279.802 183.971 280.498Z" fill="#371B34"/>
<g clip-path="url(#clip2_1_3)">
<path d="M265.283 314.559C266.392 314.259 267.44 313.903 268.52 313.692C271.143 313.179 273.685 313.45 276.13 314.621C281.502 317.193 283.904 323.28 282.119 328.833C280.901 332.621 278.319 335.149 274.897 336.966C271.528 338.754 267.902 339.772 264.182 340.503C260.603 341.189 256.978 341.617 253.335 341.782C250.767 341.912 248.894 340.836 247.736 338.544C245.227 333.599 243.082 328.514 241.867 323.09C241.18 320.028 240.839 316.939 241.327 313.812C242.182 308.323 246.497 303.996 251.858 303.292C254.034 302.99 256.253 303.345 258.232 304.309C262.294 306.264 264.353 309.636 265.131 313.928C265.158 314.098 265.185 314.259 265.218 314.423C265.234 314.471 265.256 314.517 265.283 314.559V314.559Z" fill="#FCDDEC"/>
</g>
<g clip-path="url(#clip3_1_3)">
<path d="M237.958 261.53C238.027 260.864 238.053 260.218 238.164 259.586C238.435 258.05 239.115 256.722 240.265 255.636C242.792 253.249 246.611 253.216 249.261 255.352C251.069 256.81 251.905 258.746 252.177 260.991C252.445 263.201 252.239 265.389 251.858 267.568C251.481 269.661 250.954 271.725 250.281 273.744C249.813 275.17 248.834 275.964 247.343 276.115C244.124 276.445 240.905 276.547 237.696 276.072C235.884 275.804 234.131 275.343 232.53 274.421C229.72 272.805 228.268 269.548 229.007 266.481C229.299 265.233 229.957 264.098 230.897 263.222C232.813 261.42 235.082 261.005 237.583 261.481C237.681 261.502 237.774 261.521 237.87 261.537C237.9 261.539 237.929 261.536 237.958 261.53V261.53Z" fill="#FCDDEC"/>
</g>
</g>
</g>
<defs>
<clipPath id="clip0_1_3">
<rect width="812" height="375" fill="white" transform="translate(375 3.05176e-05) rotate(90)"/>
</clipPath>
<clipPath id="clip1_1_3">
<rect width="325" height="768" fill="white" transform="translate(25 201)"/>
</clipPath>
<clipPath id="clip2_1_3">
<rect width="44" height="36" fill="white" transform="translate(248.941 298.893) rotate(29.9863)"/>
</clipPath>
<clipPath id="clip3_1_3">
<rect width="25.6778" height="21.0091" fill="white" transform="translate(226 267.147) rotate(-38.9646)"/>
</clipPath>
</defs>
</svg>
