<svg width="300" height="300" viewBox="0 0 300 300" fill="none" xmlns="http://www.w3.org/2000/svg">
<mask id="mask0_1_4" style="mask-type:alpha" maskUnits="userSpaceOnUse" x="0" y="0" width="300" height="300">
<path d="M7.62939e-05 20C7.62939e-05 8.9543 8.95438 0 20.0001 0H280C291.046 0 300 8.95431 300 20V280C300 291.046 291.046 300 280 300H20.0001C8.95438 300 7.62939e-05 291.046 7.62939e-05 280V20Z" fill="#FCDDEC"/>
</mask>
<g mask="url(#mask0_1_4)">
<path d="M327.196 300.027C342.544 276.95 380.435 147.637 355.689 132.585C328.501 116.049 306.652 143.611 285.288 121.723C275.97 112.177 283.67 88.4874 264.411 80.706C237.358 69.7764 169.571 110.86 180.252 80.5459C190.934 50.2316 118.267 29.3151 48.9586 33.3323C-20.3494 37.3494 -7.47776 78.4397 -6.5185 85.0864C-5.55924 91.7331 4.65366 123.83 -34.8358 138.583C-74.3253 153.337 -65.2619 173.44 -61.3753 184.95C-57.9923 194.976 -38.8791 206.838 -66.7151 232.777C-89.8972 254.374 -71.7305 289.027 -64.9981 300.027H327.196Z" fill="#B4B4D2"/>
<g style="mix-blend-mode:multiply" opacity="0.5">
<path d="M-36.1858 139.124L-36.8598 139.386L-37.2191 139.53L-37.8339 139.776L-38.1933 139.923L-38.8049 140.177L-39.1339 140.314C-39.3671 140.412 -39.5981 140.511 -39.827 140.61L-40.049 140.704L-40.9513 141.099L-41.111 141.17C-41.3522 141.279 -41.5901 141.386 -41.8281 141.49L-42.1044 141.618L-42.6905 141.891L-42.9827 142.03L-43.5449 142.3L-43.8227 142.436L-44.4104 142.728L-44.6324 142.838C-45.1743 143.112 -45.7019 143.386 -46.2151 143.659L-46.3556 143.736L-46.9721 144.071L-47.1765 144.185C-47.3585 144.285 -47.539 144.386 -47.7163 144.488L-47.9271 144.608L-48.4573 144.923L-48.6377 145.028L-49.2558 145.397L-49.3308 145.442C-49.8025 145.727 -50.2603 146.015 -50.7043 146.305L-50.8001 146.367C-50.9854 146.487 -51.169 146.608 -51.3511 146.73L-51.4836 146.819C-51.6545 146.934 -51.8238 147.049 -51.9915 147.166L-52.116 147.252L-52.6478 147.626L-52.7197 147.677C-53.333 148.118 -53.9185 148.56 -54.4764 149.004L-54.5275 149.044C-54.6872 149.177 -54.8581 149.309 -55.0194 149.442L-55.0913 149.503C-55.251 149.634 -55.4107 149.766 -55.5704 149.899L-55.6199 149.942C-56.3194 150.542 -56.9736 151.143 -57.5826 151.746L-57.6066 151.77C-57.7503 151.912 -57.8909 152.054 -58.0298 152.198L-58.0585 152.228C-58.2023 152.377 -58.3444 152.525 -58.4833 152.674L-62.1916 157.674C-66.0788 164.501 -65.4367 171.303 -63.8829 177.142C-63.7391 177.683 -63.5885 178.215 -63.4309 178.739C-63.4302 178.743 -63.4302 178.747 -63.4309 178.75L-63.3159 179.129C-63.3152 179.133 -63.3152 179.138 -63.3159 179.142C-63.1583 179.656 -62.9986 180.161 -62.8368 180.656C-62.8324 180.667 -62.8286 180.678 -62.8256 180.69C-62.7873 180.805 -62.749 180.92 -62.7122 181.033C-62.7122 181.033 -62.7122 181.048 -62.7043 181.054C-62.5808 181.422 -62.4583 181.785 -62.3369 182.142V182.158C-62.2986 182.273 -62.2587 182.388 -62.2188 182.501V182.511C-62.0814 182.909 -61.9457 183.297 -61.8131 183.679C-61.7956 183.733 -61.7764 183.786 -61.7588 183.838L-61.7157 183.963C-61.6933 184.028 -61.671 184.094 -61.647 184.161C-61.6327 184.202 -61.6199 184.244 -61.6055 184.284C-61.5816 184.353 -61.5576 184.421 -61.5352 184.49C-61.5225 184.524 -61.5113 184.559 -61.5001 184.592C-61.465 184.694 -61.4298 184.797 -61.3963 184.897C-58.017 194.904 -38.9247 206.742 -66.7303 232.634C-82.231 247.067 -79.2206 267.342 -73.5192 282.461L331.395 291.088C341.901 268.404 357.086 218.543 361.877 180.492H348.428V129.332C347.526 129 346.63 128.707 345.739 128.455L345.677 128.439C345.48 128.383 345.284 128.329 345.087 128.279L344.988 128.254L344.433 128.113L344.322 128.087C344.139 128.043 343.955 128.001 343.771 127.96L343.669 127.937C343.479 127.896 343.289 127.854 343.099 127.816L343.022 127.8L342.401 127.68H342.38C341.5 127.519 340.625 127.391 339.755 127.297H339.744L339.124 127.233H339.051L338.488 127.185H338.393C338.213 127.17 338.032 127.157 337.851 127.146H337.749L337.206 127.116H337.117L336.545 127.094H336.489C335.429 127.062 334.375 127.07 333.327 127.11H333.252C333.073 127.11 332.893 127.124 332.714 127.134H332.602L332.099 127.162H331.971L331.481 127.196L331.351 127.206L330.855 127.244L330.738 127.254L330.213 127.301H330.13C329.512 127.36 328.897 127.427 328.284 127.503H328.236L327.689 127.571L327.542 127.591L327.1 127.65L326.902 127.677L326.511 127.731L326.287 127.763L325.925 127.817L325.684 127.854L325.345 127.905L325.081 127.947L324.775 127.995L324.487 128.041L324.226 128.084L323.893 128.14L323.759 128.162C318.535 129.038 313.476 130.169 308.527 130.539V139.645H283.11V124.325H264.694V149.338H245.838V105.023H216.452V154.602H207.688V124.555H199.138L166.032 140.645H150.691V123.452H105.081V108.972H79.2098V152.848H68.687V133.103H55.97V147.579H40.6227V70.5825H33.3882L20.0132 83.9643V121.696H7.04221V112.484H-6.51805C-6.58832 112.697 -6.66018 112.912 -6.73364 113.131V147.583H-27.7823V135.538C-28.321 135.809 -28.8699 136.076 -29.4288 136.337H-29.4448C-29.7147 136.463 -29.9862 136.589 -30.2625 136.714L-30.3088 136.734C-30.5691 136.853 -30.8342 136.971 -31.1073 137.087L-31.1967 137.127C-31.448 137.234 -31.7009 137.34 -31.9553 137.447L-32.0959 137.508C-32.3354 137.609 -32.5766 137.708 -32.8193 137.806L-33.0093 137.883C-33.2441 137.979 -33.4885 138.071 -33.7216 138.166L-33.9356 138.25C-34.2454 138.37 -34.5569 138.49 -34.8731 138.607C-35.1893 138.723 -35.547 138.861 -35.8776 138.988L-36.1858 139.124Z" fill="#B4B4D2"/>
</g>
<path opacity="0.8" d="M91.7082 99.3809C91.546 98.6815 91.2446 98.0215 90.8219 97.4402C90.3992 96.8588 89.8638 96.3678 89.2472 95.9961C88.6307 95.6245 87.9456 95.3797 87.2324 95.2764C86.5193 95.1731 85.7926 95.2133 85.0953 95.3946C84.2824 93.6627 82.8674 92.2826 81.112 91.5096C79.3566 90.7366 77.3795 90.623 75.5464 91.1898C74.5934 89.6138 73.2118 88.3388 71.5615 87.5125C69.9112 86.6862 68.0597 86.3423 66.2213 86.5206C64.3829 86.699 62.6328 87.3923 61.1736 88.5203C59.7144 89.6482 58.6057 91.1648 57.9759 92.8944C56.9545 92.3271 55.8019 92.0357 54.6325 92.0493C53.4632 92.0628 52.3177 92.3806 51.3097 92.9714C50.3018 93.5621 49.4665 94.4051 48.8867 95.4167C48.3069 96.4283 48.0028 97.5734 48.0045 98.7383C48.0045 98.9583 48.0157 99.1736 48.0365 99.3872L91.7082 99.3809Z" fill="#FCDDEC"/>
<path d="M56.0567 300.022C59.0226 297.458 60.8155 294.756 60.3597 292.061C59.5406 287.253 52.7514 290.343 52.4932 286.872C52.0453 280.832 77.9559 282.244 77.1001 274.5C76.2634 266.928 57.2185 279.308 56.4217 273.842C55.9292 270.462 84.7244 270.749 85.3093 263.065C85.8942 255.381 64.4715 262.815 60.2482 260.558C56.0248 258.302 100.845 244.628 96.3585 234.58C92.693 226.385 62.822 245.556 57.9006 243.631C52.9793 241.706 76.8547 225.484 84.2352 210.64C91.8675 195.289 85.6297 187.564 73.5573 199.768C61.4849 211.973 41.6017 235.279 40.7794 228.264C39.957 221.25 53.5402 195.296 42.5102 197.238C23.1051 200.656 21.5034 232.941 15.4888 258.172C14.8513 260.844 8.36007 229.388 0.491906 238.87C-3.55613 243.748 3.95026 279.665 8.62941 300.027L56.0567 300.022Z" fill="#F09A59"/>
<path opacity="0.8" d="M82.7689 67.6012C82.9891 66.6858 83.3994 65.8219 83.9754 65.0606C84.5514 64.2994 85.2815 63.6563 86.1223 63.1693C86.9632 62.6824 87.8978 62.3616 88.8708 62.2258C89.8437 62.09 90.8354 62.1421 91.7869 62.3789C92.8952 60.1145 94.8246 58.3101 97.2182 57.2998C99.6118 56.2895 102.308 56.1416 104.807 56.8835C106.106 54.8225 107.99 53.1552 110.24 52.0746C112.491 50.9939 115.015 50.5441 117.522 50.7771C120.029 51.0101 122.416 51.9165 124.405 53.3913C126.395 54.8661 127.908 56.8491 128.767 59.1107C130.16 58.3696 131.731 57.9892 133.326 58.0073C134.92 58.0254 136.482 58.4413 137.856 59.2137C139.231 59.9862 140.37 61.0884 141.161 62.411C141.951 63.7337 142.367 65.2308 142.365 66.754C142.365 67.0409 142.349 67.3233 142.322 67.6027L82.7689 67.6012Z" fill="#FCDDEC"/>
<path opacity="0.8" d="M234.739 101.374C234.86 100.835 235.086 100.328 235.403 99.88C235.72 99.4326 236.122 99.0546 236.584 98.7685C237.047 98.4824 237.56 98.294 238.095 98.2145C238.63 98.1349 239.175 98.1658 239.698 98.3054C240.31 96.974 241.371 95.9134 242.688 95.3189C244.004 94.7245 245.486 94.6362 246.861 95.0705C247.575 93.8576 248.611 92.8763 249.848 92.2402C251.086 91.6041 252.474 91.3392 253.853 91.4763C255.232 91.6134 256.544 92.1468 257.639 93.0147C258.733 93.8827 259.565 95.0497 260.037 96.3806C260.803 95.9446 261.668 95.7209 262.545 95.7316C263.422 95.7424 264.281 95.9872 265.037 96.4418C265.793 96.8965 266.419 97.5452 266.854 98.3235C267.289 99.1019 267.517 99.983 267.517 100.879C267.517 101.047 267.508 101.212 267.492 101.374H234.739Z" fill="#FCDDEC"/>
<path d="M164.518 298.452C164.86 299.816 166.19 300.996 168.122 302.014H230.927C232.96 292.151 234.171 280.818 229.696 278.582C226.09 276.781 224.836 282.848 222.396 281.323C218.149 278.669 231.743 261.975 226.161 258.75C220.7 255.609 219.664 274.451 215.627 272.31C213.133 270.986 227.382 251.799 222.545 247.641C217.709 243.483 212.206 261.507 208.642 263.232C205.077 264.957 217.841 228.191 208.952 226.289C201.703 224.738 199.896 254.166 196.211 256.528C192.526 258.89 193.366 234.933 187.073 222.719C180.564 210.088 172.366 210.496 174.607 224.575C176.848 238.654 182.68 263.39 177.602 260.507C172.525 257.625 161.848 235.84 157.759 244.186C150.565 258.882 159.955 271.918 173.841 288.286C175.31 290.015 162.04 288.533 164.518 298.452Z" fill="#F09A59"/>
<path d="M-36.423 300.444C-36.423 300.444 15.4678 255.164 82.3776 252.384C104.845 251.449 196.839 270.184 274.317 284.888C277.574 285.507 284.615 291.562 287.912 292.184C324.589 299.11 358.768 300.573 369.823 301.02L-36.423 300.444Z" fill="#AEAFF7"/>
<path d="M293.042 280.162C293.242 278.526 293.342 276.881 293.341 275.233C293.341 256.561 280.667 241.424 265.034 241.424C249.401 241.424 236.725 256.561 236.725 275.233C236.725 276.881 236.825 278.526 237.025 280.162H293.042Z" fill="#7879F1"/>
<path d="M325.814 272.215C326.016 269.904 326.118 267.546 326.119 265.142C326.119 238.327 313.222 216.593 297.314 216.593C281.407 216.593 268.51 238.331 268.51 265.142C268.51 267.545 268.611 269.903 268.813 272.215H325.814Z" fill="#AEAFF7"/>
<path d="M269.88 301.02C269.628 298.713 269.502 296.394 269.503 294.073C269.503 267.737 285.512 246.391 305.26 246.391C325.009 246.391 341.018 267.74 341.018 294.073C341.018 296.394 340.892 298.713 340.64 301.02H269.88Z" fill="#7879F1"/>
<path d="M297.046 246.391C287.075 246.391 278.169 253.163 272.29 263.783C269.234 262.788 266.036 262.281 262.819 262.283C245.116 262.283 230.766 277.419 230.766 296.092C230.765 297.74 230.879 299.387 231.106 301.02H328.761C328.982 298.752 329.095 296.437 329.099 294.074C329.091 267.734 314.74 246.391 297.046 246.391Z" fill="#EF5DA8"/>
<path d="M289.424 174.807C289.447 174.01 290.544 173.387 291.126 174.096C291.708 174.805 291.681 174.326 292.247 175.849C293.911 180.263 296.193 184.415 299.026 188.181C304.341 195.283 309.602 198.866 315.577 202.415C313.115 196.839 311.467 190.892 311.256 184.891C311.18 182.704 311.221 180.43 312.153 178.428C312.413 177.867 313.412 177.982 313.513 178.608C314.014 181.705 313.276 184.039 314.274 189.581C316.652 202.804 326.073 216.836 335.162 226.659C333.418 210.029 332.574 191.133 335.691 174.356C336.201 171.603 337.015 168.987 337.769 166.298C337.947 165.661 338.843 165.938 338.732 166.566C338.573 167.461 337.091 179.003 337 179.8C335.559 192.573 335.848 206.723 336.969 219.627C344.018 210.035 348.736 198.815 350.943 187.099C351.594 183.636 351.769 180.059 352.687 176.659C352.812 176.193 353.582 176.142 353.677 176.659C354.617 181.757 352.736 190.762 351.366 195.656C348.589 205.576 344.145 214.467 338.071 222.41C337.834 222.719 347.826 300.337 347.558 301.32C347.105 302.979 344.229 304.142 343.785 301.201C343.605 300.003 338.115 252.808 335.637 230.945C334.7 230.427 334.099 229.511 331.691 226.785C326.118 220.489 320.607 212.656 316.923 205.269C314.713 205.141 298.751 197.336 290.835 179.565C290.606 179.052 289.577 176.647 289.432 176.11C289.302 175.659 289.409 175.261 289.424 174.807Z" fill="#7879F1"/>
<path d="M320.875 180.835C321.059 178.442 321.153 175.995 321.153 173.506C321.153 145.741 309.37 123.226 294.831 123.226C280.292 123.226 268.51 145.736 268.51 173.506C268.51 175.995 268.605 178.443 268.787 180.835H320.875Z" fill="#AEAFF7"/>
<path d="M362.518 180.835C362.749 177.453 362.866 173.999 362.87 170.472C362.87 131.213 347.971 99.3873 329.595 99.3873C311.218 99.3873 296.321 131.221 296.321 170.472C296.321 173.992 296.438 177.446 296.673 180.835H362.518Z" fill="#7879F1"/>
<path d="M-7.46794 214.064L-10.1784 207.527C-12.2811 202.726 -17.6636 200.423 -22.2072 202.406C-33.6378 207.386 -38.6081 221.243 -33.3074 233.36L-29.4309 242.218C-27.7341 246.098 -28.3243 250.368 -30.6146 253.378C-32.6996 256.111 -33.0332 259.912 -31.5913 263.209L-29.548 267.878C-28.4743 270.336 -26.8796 272.533 -24.8737 274.317C-22.8678 276.102 -20.4983 277.431 -17.9282 278.214C-16.3685 278.699 -14.9328 279.516 -13.7202 280.608C-12.5077 281.7 -11.5471 283.042 -10.905 284.54L-8.01806 291.153C-4.82 298.463 3.36922 301.953 10.2657 298.949L14.2016 297.235C21.0981 294.232 24.0973 285.873 20.8992 278.56C15.7268 269.819 16.139 263.295 17.9722 258.877C19.3197 255.593 19.9919 252.072 19.9486 248.524C19.9053 244.975 19.1476 241.472 17.7204 238.222L17.3114 237.287C15.8176 233.863 13.6095 230.796 10.8343 228.29C8.05903 225.784 4.7804 223.897 1.21687 222.755C-1.90581 221.756 -5.16161 219.332 -7.46794 214.064Z" fill="#EF5DA8"/>
<path d="M36.0854 299.97C32.1002 294.866 -5.38613 267.576 -19.6515 263.019C-35.3994 257.984 -20.5585 277.964 -20.5585 277.964C-20.5585 277.964 -48.4931 247.819 -58.743 250.537C-68.1401 253.027 -58.743 271.713 -58.743 271.713C-58.743 271.713 -69.3277 261.367 -82.1616 261.367C-94.6528 261.367 -73.4356 298.062 -72.2911 300.027L36.0854 299.97Z" fill="#D3D3F4"/>
<path d="M-3.30052 249.464C-6.79764 240.462 -10.222 231.455 -12.7086 222.089C-20.3576 193.27 -18.5113 172.263 -18.2267 162.163C-18.1879 160.83 -20.3512 160.463 -20.5403 161.844C-21.1871 166.585 -21.3358 171.401 -21.3681 176.184C-21.4204 184.29 -20.9224 192.39 -19.8775 200.43C-25.4893 201.876 -30.7973 199.71 -35.14 195.819C-42.6257 189.115 -45.2982 180.175 -46.4753 170.277C-46.5949 169.267 -46.6369 168.309 -47.4647 167.723C-47.6507 167.204 -48.4154 167.045 -48.6062 167.819C-49.7929 169.026 -49.2173 171.448 -49.0346 173.006C-46.5642 194.092 -33.6121 204.312 -23.1838 204.223C-22.0391 204.213 -20.6487 204.157 -19.4054 203.816C-18.6509 208.859 -17.684 213.861 -16.5048 218.821C-14.2526 228.264 -11.0918 237.376 -7.6125 246.405C4.28061 277.274 8.07036 293.045 11.4527 301.98C11.9636 303.776 14.6491 303.024 14.1786 301.205C14.0104 300.557 4.73169 270.145 -3.30052 249.464Z" fill="#7879F1"/>
<path d="M43.8383 168.556C43.7263 167.893 43.3375 167.454 43.1903 166.834C42.9951 166.015 41.6559 165.933 41.5167 166.834C41.4367 167.348 41.1503 167.665 41.0367 168.192C40.6783 169.895 41.5455 179.475 39.2767 194.141C38.6751 198.039 38.0095 201.914 36.7167 205.635C34.6143 211.648 30.7807 218.13 26.0159 222.227C25.8903 213.637 25.3237 205.058 24.3183 196.525C23.6986 191.417 22.9167 186.337 21.9727 181.284C21.5119 178.824 21.0127 176.372 20.4751 173.927C19.9135 171.361 19.3823 168.899 18.1519 166.579C17.7743 165.866 16.6991 166.199 16.6975 166.988C16.6975 169.266 17.1487 171.363 17.6255 173.575C18.1023 175.787 18.5423 177.988 18.9551 180.203C22.0175 196.623 23.1695 211.206 23.1567 227.647C18.1087 221.312 13.6943 213.723 10.4239 206.272C6.45477 197.247 3.86607 187.681 2.7439 177.892C2.4367 175.156 2.25217 172.409 2.19031 169.65C2.16044 168.225 2.13111 166.799 2.10231 165.372C2.08631 164.638 1.8047 162.424 0.566306 163.074C-0.574493 163.67 -0.465692 165.001 -0.561692 166.164C-0.665691 167.438 -0.675289 168.694 -0.659289 169.966C-0.627289 172.401 -0.49769 174.832 -0.270491 177.26C1.36791 194.827 8.0127 212.192 18.1167 226.42C19.6575 228.588 21.2479 230.913 23.1183 232.806C22.6879 260.924 18.5007 296.439 18.4271 299.279C18.4111 299.905 18.5535 300.553 18.6463 301.164C18.8367 302.438 20.5183 302.145 20.8607 301.164C21.5103 299.312 21.4431 298.591 22.4127 288.334C24.1391 270.042 26.0735 228.137 26.0655 226.441C32.0655 222.141 36.3055 215.528 39.0895 208.62C40.5615 204.957 41.4255 201.183 42.0751 197.279C44.2687 184 44.1999 170.726 43.8383 168.556Z" fill="#7879F1"/>
<path d="M1.97334 145.073C2.2011 143.016 2.31495 140.947 2.31433 138.877C2.31433 115.421 -12.1383 96.4074 -29.966 96.4074C-47.7938 96.4074 -62.248 115.426 -62.248 138.882C-62.2486 140.952 -62.1347 143.02 -61.907 145.077L1.97334 145.073Z" fill="#7879F1"/>
<path d="M39.7122 135.145C39.9398 132.255 40.0552 129.305 40.0584 126.293C40.0584 92.7806 25.3835 65.6162 7.28145 65.6162C-10.8206 65.6162 -25.4971 92.7839 -25.4971 126.293C-25.4971 129.297 -25.3817 132.248 -25.1509 135.145H39.7122Z" fill="#AEAFF7"/>
<path d="M-25.0562 171.896C-25.3459 169.008 -25.4928 166.058 -25.4971 163.044C-25.4971 129.53 -6.81955 102.367 16.2192 102.367C39.258 102.367 57.9372 129.535 57.9372 163.044C57.9372 166.048 57.7902 168.999 57.4963 171.896H-25.0562Z" fill="#7879F1"/>
<path d="M7.12493 102.367C-4.3562 102.367 -14.613 110.991 -21.3829 124.508C-24.8828 123.244 -28.5746 122.598 -32.2944 122.599C-52.6732 122.599 -69.2009 141.86 -69.2009 165.62C-69.2017 167.718 -69.0715 169.814 -68.811 171.896H43.6415C43.8982 169.009 44.0282 166.058 44.0314 163.045C44.0346 129.53 27.5101 102.367 7.12493 102.367Z" fill="#AEAFF7"/>
<path d="M-19.4706 264.346C-11.1853 272.717 -3.96225 282.205 1.439 292.756C2.95475 295.719 4.23657 298.77 5.55844 301.819C5.73469 302.224 6.41405 301.935 6.26664 301.515L5.82441 300.26C5.73789 300.015 5.30047 300.026 5.34373 300.327C5.39927 300.76 5.45268 301.194 5.50396 301.627L6.26503 301.522C4.21092 296.005 1.36049 290.688 -1.70625 285.695C-10.9001 270.727 -20.4192 263.395 -19.4722 264.352L-19.4706 264.346Z" fill="#AEAFF7"/>
<path d="M201.961 179.842C202.503 178.908 203.102 178.025 203.72 177.157C204.338 176.289 204.982 175.446 205.642 174.619C206.303 173.793 206.986 172.98 207.692 172.19C208.398 171.4 209.123 170.629 209.907 169.909C209.365 170.844 208.765 171.727 208.149 172.594C207.532 173.461 206.887 174.305 206.224 175.133C205.56 175.962 204.88 176.771 204.176 177.561C203.471 178.351 202.744 179.12 201.961 179.842Z" fill="#FCDDEC"/>
<path d="M115.547 91.441C116.089 90.5058 116.689 89.6233 117.307 88.7568C117.925 87.8902 118.568 87.046 119.229 86.2178C119.889 85.3895 120.573 84.5788 121.279 83.7889C121.985 82.9989 122.711 82.2297 123.493 81.5084C122.952 82.4435 122.352 83.3261 121.736 84.1942C121.119 85.0624 120.474 85.905 119.811 86.7316C119.147 87.5583 118.467 88.3626 117.762 89.1605C117.058 89.9585 116.329 90.7197 115.547 91.441Z" fill="#FCDDEC"/>
<path d="M82.7689 119.253C83.3787 118.317 84.0535 117.435 84.747 116.568C85.4406 115.702 86.1666 114.858 86.9114 114.029C87.6562 113.201 88.4233 112.392 89.2159 111.602C90.0085 110.812 90.8268 110.041 91.7083 109.32C91.1001 110.255 90.4254 111.138 89.7301 112.006C89.0348 112.874 88.3105 113.717 87.5657 114.543C86.8209 115.37 86.0522 116.181 85.2595 116.971C84.4669 117.76 83.6486 118.53 82.7689 119.253Z" fill="#FCDDEC"/>
<path d="M117.533 117.266C118.143 116.332 118.818 115.45 119.511 114.581C120.205 113.713 120.931 112.87 121.676 112.042C122.421 111.214 123.188 110.404 123.98 109.614C124.773 108.824 125.591 108.053 126.473 107.333C125.864 108.267 125.19 109.151 124.496 110.018C123.803 110.885 123.075 111.729 122.33 112.556C121.585 113.383 120.818 114.193 120.024 114.984C119.23 115.774 118.415 116.545 117.533 117.266Z" fill="#FCDDEC"/>
<path d="M87.7351 140.111C88.2771 139.177 88.8768 138.295 89.4947 137.426C90.1125 136.558 90.7562 135.717 91.4182 134.889C92.0801 134.06 92.7617 133.249 93.4662 132.459C94.1706 131.669 94.8978 130.9 95.6812 130.178C95.1392 131.114 94.5395 131.996 93.9231 132.865C93.3068 133.733 92.6616 134.574 91.9981 135.403C91.3347 136.231 90.6545 137.04 89.9501 137.83C89.2457 138.62 88.5185 139.396 87.7351 140.111Z" fill="#FCDDEC"/>
<path d="M89.7217 211.626C90.2638 210.691 90.8636 209.809 91.4801 208.942C92.0966 208.076 92.7419 207.231 93.4039 206.403C94.066 205.575 94.7478 204.766 95.4523 203.976C96.1569 203.186 96.8843 202.415 97.6678 201.694C97.1272 202.629 96.5274 203.513 95.9094 204.38C95.2914 205.246 94.6476 206.09 93.9855 206.917C93.3235 207.744 92.6402 208.554 91.9356 209.344C91.231 210.134 90.5037 210.905 89.7217 211.626Z" fill="#FCDDEC"/>
<path d="M48.9979 213.613C49.6078 212.679 50.2826 211.796 50.9778 210.928C51.6731 210.06 52.3974 209.217 53.1405 208.39C53.8836 207.563 54.6523 206.751 55.4467 205.961C56.241 205.171 57.0576 204.4 57.9373 203.68C57.3292 204.615 56.6544 205.498 55.9609 206.365C55.2673 207.231 54.5413 208.076 53.7948 208.903C53.0483 209.729 52.2829 210.542 51.4903 211.34C50.6977 212.138 49.8794 212.891 48.9979 213.613Z" fill="#FCDDEC"/>
<path d="M66.8767 180.835C67.4866 179.9 68.1613 179.017 68.8549 178.151C69.5484 177.284 70.2745 176.44 71.0193 175.612C71.7641 174.784 72.5311 173.974 73.3237 173.185C74.1164 172.395 74.9346 171.624 75.8161 170.902C75.208 171.838 74.5332 172.72 73.8379 173.588C73.1427 174.456 72.4183 175.299 71.6735 176.126C70.9287 176.952 70.16 177.763 69.3674 178.553C68.5747 179.343 67.7565 180.114 66.8767 180.835Z" fill="#FCDDEC"/>
<path d="M41.0517 150.044C41.5938 149.11 42.1936 148.226 42.8101 147.359C43.4266 146.492 44.0719 145.648 44.734 144.82C45.396 143.991 46.0778 143.182 46.7824 142.392C47.487 141.602 48.2143 140.831 48.9978 140.111C48.4573 141.045 47.8575 141.929 47.2395 142.796C46.6214 143.663 45.9776 144.507 45.3156 145.334C44.6535 146.161 43.9702 146.971 43.2656 147.761C42.5611 148.551 41.8337 149.322 41.0517 150.044Z" fill="#FCDDEC"/>
<path d="M62.9037 75.5489C63.4457 74.6137 64.0455 73.7312 64.6636 72.8646C65.2816 71.9981 65.9254 71.1538 66.5859 70.3256C67.2465 69.4973 67.9298 68.6882 68.6359 67.8983C69.342 67.1083 70.0663 66.3375 70.8498 65.6162C70.3092 66.5514 69.7094 67.4339 69.0929 68.302C68.4764 69.1702 67.8311 70.0128 67.1675 70.8395C66.5039 71.6661 65.8237 72.4768 65.1191 73.2747C64.4145 74.0727 63.6872 74.8275 62.9037 75.5489Z" fill="#FCDDEC"/>
<path d="M39.0651 53.6971C39.6749 52.7633 40.3495 51.8807 41.0446 51.0124C41.7398 50.1441 42.4639 49.3013 43.2086 48.4729C43.9533 47.6446 44.7201 46.8353 45.5126 46.0452C46.3051 45.2552 47.1232 44.4842 48.0045 43.7644C47.3948 44.6997 46.7201 45.5824 46.0267 46.4491C45.3333 47.3158 44.6074 48.1601 43.861 48.9869C43.1147 49.8137 42.3495 50.6245 41.5587 51.4146C40.7679 52.2047 39.9464 52.9756 39.0651 53.6971Z" fill="#FCDDEC"/>
<path d="M-1.65874 109.32C-1.049 108.386 -0.374357 107.504 0.320777 106.635C1.01591 105.767 1.74008 104.926 2.48474 104.097C3.22941 103.269 3.99627 102.458 4.78876 101.668C5.58125 100.878 6.39936 100.109 7.28066 99.3873C6.67263 100.323 5.98945 101.205 5.30627 102.074C4.62309 102.942 3.88697 103.783 3.1406 104.611C2.39423 105.44 1.62907 106.249 0.83658 107.039C0.0440931 107.829 -0.777437 108.598 -1.65874 109.32Z" fill="#FCDDEC"/>
<path d="M44.0313 117.266C44.5734 116.332 45.1732 115.45 45.7897 114.581C46.4062 113.713 47.0515 112.87 47.7136 112.042C48.3756 111.214 49.0574 110.404 49.762 109.614C50.4666 108.824 51.1939 108.053 51.9774 107.333C51.4369 108.267 50.8371 109.151 50.2191 110.018C49.601 110.885 48.9572 111.729 48.2952 112.556C47.6331 113.383 46.9513 114.193 46.2452 114.984C45.5391 115.774 44.8164 116.545 44.0313 117.266Z" fill="#FCDDEC"/>
<path d="M-1.65874 173.882C-1.049 172.947 -0.374357 172.064 0.320777 171.198C1.01591 170.331 1.74008 169.487 2.48474 168.659C3.22941 167.831 3.99627 167.021 4.78876 166.232C5.58125 165.442 6.39936 164.671 7.28066 163.949C6.67263 164.885 5.98945 165.767 5.30627 166.635C4.62309 167.503 3.88697 168.346 3.1406 169.173C2.39423 169.999 1.62907 170.81 0.83658 171.6C0.0440931 172.39 -0.777437 173.161 -1.65874 173.882Z" fill="#FCDDEC"/>
<path d="M2.31445 216.593C2.85655 215.657 3.45634 214.775 4.07436 213.908C4.69237 213.042 5.3362 212.198 5.99673 211.369C6.65726 210.541 7.34057 209.732 8.04666 208.942C8.75274 208.152 9.47857 207.381 10.2606 206.66C9.72001 207.595 9.12021 208.478 8.50372 209.346C7.88722 210.214 7.24187 211.057 6.5783 211.883C5.91474 212.71 5.23446 213.521 4.5299 214.311C3.82533 215.101 3.09798 215.873 2.31445 216.593Z" fill="#FCDDEC"/>
<path d="M69.8563 281.155C70.3983 280.221 70.998 279.338 71.6159 278.47C72.2338 277.602 72.8775 276.759 73.5394 275.931C74.2013 275.102 74.883 274.293 75.5874 273.503C76.2918 272.713 77.0191 271.942 77.8024 271.222C77.2604 272.156 76.6608 273.04 76.0444 273.907C75.428 274.774 74.7828 275.618 74.1193 276.445C73.4559 277.271 72.7758 278.082 72.0713 278.872C71.3669 279.662 70.6397 280.433 69.8563 281.155Z" fill="#FCDDEC"/>
<path d="M98.6612 230.498C99.2018 229.563 99.8016 228.681 100.42 227.814C101.038 226.948 101.681 226.103 102.343 225.275C103.006 224.447 103.687 223.638 104.392 222.846C105.096 222.055 105.824 221.287 106.607 220.566C106.067 221.501 105.467 222.383 104.849 223.252C104.231 224.12 103.587 224.961 102.925 225.789C102.263 226.617 101.58 227.426 100.875 228.216C100.171 229.006 99.4432 229.777 98.6612 230.498Z" fill="#FCDDEC"/>
<path d="M97.6679 267.249C98.2085 266.314 98.8083 265.432 99.4263 264.565C100.044 263.698 100.688 262.854 101.35 262.026C102.012 261.198 102.694 260.389 103.399 259.599C104.103 258.809 104.83 258.038 105.614 257.317C105.073 258.252 104.474 259.136 103.856 260.002C103.238 260.869 102.594 261.713 101.932 262.54C101.27 263.366 100.586 264.177 99.8818 264.967C99.1772 265.757 98.4499 266.528 97.6679 267.249Z" fill="#FCDDEC"/>
<path d="M48.9979 256.323C49.6078 255.39 50.2826 254.507 50.9778 253.639C51.6731 252.77 52.3974 251.929 53.1405 251.101C53.8836 250.272 54.6523 249.462 55.4467 248.671C56.241 247.881 57.0576 247.112 57.9373 246.391C57.3292 247.326 56.6544 248.209 55.9609 249.075C55.2673 249.942 54.5413 250.786 53.7948 251.615C53.0483 252.443 52.2829 253.252 51.4903 254.042C50.6977 254.833 49.8794 255.6 48.9979 256.323Z" fill="#FCDDEC"/>
<path d="M7.28079 261.29C7.82137 260.354 8.42115 259.472 9.03917 258.605C9.65719 257.739 10.301 256.895 10.9631 256.066C11.6251 255.238 12.3069 254.429 13.0115 253.639C13.7161 252.849 14.4434 252.078 15.2269 251.357C14.6848 252.292 14.0866 253.175 13.4685 254.043C12.8505 254.911 12.2067 255.754 11.5446 256.58C10.8826 257.407 10.1993 258.218 9.49471 259.007C8.79014 259.797 8.0628 260.568 7.28079 261.29Z" fill="#FCDDEC"/>
<path d="M32.1123 291.088C32.7154 290.159 33.3987 289.271 34.0905 288.403C34.7824 287.535 35.5101 286.692 36.2549 285.865C36.9997 285.038 37.7667 284.226 38.5611 283.436C39.3554 282.646 40.1703 281.875 41.0517 281.155C40.4436 282.09 39.7688 282.973 39.0753 283.84C38.3817 284.706 37.6557 285.551 36.9092 286.377C36.1627 287.204 35.3973 288.015 34.6047 288.805C33.8121 289.595 32.9938 290.366 32.1123 291.088Z" fill="#FCDDEC"/>
<path d="M197.988 241.424C198.597 240.489 199.272 239.607 199.966 238.74C200.659 237.874 201.387 237.029 202.13 236.201C202.873 235.373 203.642 234.564 204.436 233.774C205.231 232.984 206.045 232.213 206.927 231.492C206.319 232.427 205.644 233.309 204.95 234.178C204.257 235.046 203.531 235.888 202.784 236.715C202.038 237.542 201.273 238.352 200.48 239.142C199.687 239.932 198.869 240.703 197.988 241.424Z" fill="#FCDDEC"/>
<path d="M264.537 204.673C265.146 203.74 265.821 202.857 266.515 201.989C267.208 201.12 267.934 200.278 268.679 199.449C269.424 198.621 270.191 197.812 270.984 197.022C271.776 196.231 272.594 195.461 273.476 194.741C272.868 195.676 272.193 196.559 271.498 197.425C270.802 198.292 270.078 199.136 269.333 199.963C268.589 200.79 267.82 201.601 267.027 202.391C266.235 203.181 265.416 203.952 264.537 204.673Z" fill="#FCDDEC"/>
<path d="M213.88 211.626C214.49 210.691 215.165 209.809 215.858 208.942C216.552 208.076 217.278 207.231 218.023 206.403C218.767 205.575 219.534 204.766 220.327 203.976C221.12 203.186 221.938 202.415 222.819 201.694C222.211 202.629 221.536 203.513 220.843 204.38C220.149 205.246 219.422 206.09 218.677 206.917C217.932 207.744 217.165 208.554 216.371 209.344C215.576 210.134 214.76 210.905 213.88 211.626Z" fill="#FCDDEC"/>
<path d="M246.658 173.882C247.2 172.947 247.8 172.064 248.416 171.198C249.033 170.331 249.678 169.487 250.34 168.659C251.002 167.831 251.684 167.021 252.388 166.232C253.093 165.442 253.82 164.671 254.604 163.949C254.063 164.885 253.464 165.767 252.847 166.635C252.231 167.503 251.585 168.346 250.922 169.173C250.258 169.999 249.578 170.81 248.872 171.6C248.166 172.39 247.441 173.161 246.658 173.882Z" fill="#FCDDEC"/>
<path d="M238.712 135.145C239.254 134.211 239.854 133.328 240.47 132.46C241.087 131.592 241.732 130.749 242.394 129.922C243.056 129.095 243.738 128.283 244.442 127.493C245.147 126.703 245.874 125.934 246.658 125.212C246.117 126.147 245.517 127.03 244.899 127.897C244.281 128.763 243.638 129.608 242.976 130.436C242.313 131.265 241.63 132.074 240.926 132.864C240.221 133.654 239.494 134.423 238.712 135.145Z" fill="#FCDDEC"/>
<path d="M201.961 146.071C202.503 145.137 203.102 144.253 203.72 143.386C204.338 142.519 204.982 141.675 205.642 140.847C206.303 140.018 206.986 139.209 207.692 138.419C208.398 137.629 209.123 136.858 209.907 136.138C209.365 137.072 208.765 137.956 208.149 138.823C207.532 139.689 206.887 140.534 206.224 141.361C205.56 142.187 204.88 142.998 204.176 143.788C203.471 144.578 202.744 145.349 201.961 146.071Z" fill="#FCDDEC"/>
<path d="M269.503 140.111C270.043 139.177 270.643 138.293 271.261 137.426C271.879 136.56 272.523 135.715 273.185 134.887C273.847 134.059 274.529 133.249 275.234 132.459C275.938 131.669 276.665 130.898 277.449 130.178C276.907 131.112 276.309 131.996 275.691 132.863C275.073 133.73 274.429 134.574 273.767 135.401C273.105 136.228 272.421 137.039 271.717 137.829C271.012 138.619 270.292 139.39 269.503 140.111Z" fill="#FCDDEC"/>
<path d="M264.537 109.32C265.079 108.386 265.678 107.504 266.295 106.635C266.911 105.767 267.557 104.926 268.219 104.097C268.881 103.269 269.563 102.458 270.267 101.668C270.972 100.878 271.699 100.109 272.483 99.3873C271.942 100.323 271.342 101.205 270.724 102.074C270.106 102.942 269.462 103.783 268.8 104.611C268.138 105.44 267.455 106.249 266.75 107.039C266.046 107.829 265.319 108.598 264.537 109.32Z" fill="#FCDDEC"/>
<path d="M174.15 224.539C174.759 223.605 175.434 222.722 176.128 221.854C176.821 220.986 177.547 220.143 178.292 219.315C179.037 218.486 179.804 217.677 180.597 216.887C181.389 216.097 182.207 215.326 183.089 214.606C182.481 215.54 181.806 216.424 181.111 217.291C180.416 218.158 179.691 219.002 178.946 219.829C178.202 220.656 177.433 221.466 176.64 222.256C175.848 223.047 175.029 223.817 174.15 224.539Z" fill="#FCDDEC"/>
<path d="M173.156 275.195C173.698 274.26 174.298 273.377 174.915 272.511C175.531 271.644 176.176 270.8 176.838 269.971C177.5 269.143 178.182 268.334 178.887 267.543C179.591 266.753 180.319 265.982 181.102 265.263C180.562 266.196 179.962 267.081 179.344 267.947C178.726 268.814 178.084 269.658 177.42 270.485C176.756 271.312 176.076 272.123 175.37 272.913C174.664 273.703 173.941 274.474 173.156 275.195Z" fill="#FCDDEC"/>
<path d="M190.042 297.047C190.584 296.113 191.184 295.231 191.8 294.362C192.417 293.494 193.062 292.651 193.724 291.825C194.386 290.998 195.068 290.185 195.772 289.395C196.477 288.605 197.204 287.836 197.988 287.114C197.447 288.05 196.847 288.932 196.231 289.799C195.615 290.666 194.969 291.51 194.306 292.339C193.642 293.167 192.962 293.976 192.256 294.766C191.55 295.556 190.825 296.326 190.042 297.047Z" fill="#FCDDEC"/>
<path d="M223.813 268.242C224.423 267.309 225.097 266.426 225.791 265.558C226.484 264.69 227.21 263.848 227.955 263.02C228.7 262.192 229.467 261.381 230.26 260.591C231.052 259.801 231.871 259.031 232.752 258.31C232.144 259.245 231.469 260.128 230.776 260.996C230.082 261.864 229.354 262.706 228.609 263.534C227.865 264.362 227.098 265.172 226.303 265.962C225.509 266.752 224.698 267.523 223.813 268.242Z" fill="#FCDDEC"/>
<path d="M264.537 289.101C265.079 288.167 265.678 287.285 266.295 286.416C266.911 285.548 267.557 284.705 268.219 283.878C268.881 283.052 269.563 282.239 270.267 281.449C270.972 280.659 271.699 279.888 272.483 279.168C271.942 280.104 271.342 280.986 270.724 281.853C270.106 282.72 269.462 283.564 268.8 284.392C268.138 285.221 267.455 286.03 266.75 286.82C266.046 287.61 265.319 288.38 264.537 289.101Z" fill="#FCDDEC"/>
<path d="M293.341 251.357C293.883 250.422 294.483 249.539 295.1 248.673C295.716 247.806 296.361 246.962 297.023 246.134C297.685 245.305 298.367 244.496 299.072 243.706C299.776 242.916 300.504 242.146 301.287 241.424C300.747 242.36 300.147 243.242 299.53 244.11C298.914 244.978 298.267 245.821 297.605 246.648C296.943 247.474 296.261 248.285 295.555 249.075C294.849 249.865 294.125 250.636 293.341 251.357Z" fill="#FCDDEC"/>
<path d="M264.537 231.492C265.146 230.556 265.821 229.674 266.515 228.807C267.208 227.941 267.934 227.097 268.679 226.268C269.424 225.44 270.191 224.631 270.984 223.841C271.776 223.051 272.594 222.28 273.476 221.559C272.868 222.494 272.193 223.377 271.498 224.245C270.802 225.113 270.078 225.955 269.333 226.782C268.589 227.609 267.82 228.419 267.027 229.209C266.235 229.999 265.416 230.77 264.537 231.492Z" fill="#FCDDEC"/>
<path d="M222.82 104.354C223.429 103.418 224.104 102.536 224.799 101.669C225.494 100.803 226.218 99.9585 226.963 99.1303C227.708 98.302 228.475 97.4929 229.267 96.7029C230.059 95.913 230.878 95.1422 231.759 94.4209C231.149 95.356 230.475 96.2401 229.781 97.1067C229.088 97.9733 228.362 98.8175 227.615 99.6441C226.869 100.471 226.104 101.281 225.311 102.071C224.519 102.861 223.701 103.632 222.82 104.354Z" fill="#FCDDEC"/>
<path d="M160.244 86.4748C160.786 85.541 161.386 84.6568 162.002 83.7901C162.619 82.9234 163.264 82.079 163.926 81.2506C164.588 80.4223 165.27 79.613 165.974 78.8229C166.679 78.0329 167.406 77.2619 168.19 76.5421C167.649 77.4758 167.049 78.3601 166.431 79.2268C165.813 80.0935 165.17 80.9378 164.508 81.7646C163.846 82.5914 163.162 83.4022 162.458 84.1923C161.753 84.9824 161.023 85.7533 160.244 86.4748Z" fill="#FCDDEC"/>
<path d="M194.015 120.246C194.555 119.312 195.155 118.429 195.773 117.561C196.391 116.693 197.035 115.85 197.697 115.023C198.359 114.197 199.041 113.384 199.746 112.594C200.45 111.804 201.178 111.035 201.961 110.313C201.42 111.248 200.821 112.131 200.203 112.998C199.585 113.865 198.941 114.709 198.279 115.537C197.617 116.366 196.933 117.175 196.229 117.965C195.524 118.755 194.797 119.524 194.015 120.246Z" fill="#FCDDEC"/>
<path d="M158.257 122.232C158.798 121.297 159.397 120.415 160.015 119.548C160.634 118.681 161.277 117.837 161.939 117.009C162.601 116.181 163.283 115.372 163.988 114.582C164.692 113.792 165.42 113.021 166.203 112.3C165.661 113.235 165.063 114.117 164.445 114.985C163.827 115.854 163.183 116.696 162.521 117.523C161.859 118.35 161.176 119.16 160.471 119.95C159.766 120.74 159.039 121.511 158.257 122.232Z" fill="#FCDDEC"/>
<path d="M143.914 146.071L143.81 153.46C143.81 153.46 155.43 161.987 157.747 176.419C160.065 190.85 159.579 212.65 157.138 226.656C154.696 240.662 149.924 268.408 149.276 277.163C148.628 285.917 150.145 294.642 148.361 298.228C146.577 301.815 144.239 303.007 144.239 303.007C144.239 303.007 140.14 265.401 140.013 263.618L136.014 207.822C136.014 207.822 133.084 184.729 135.166 179.968C137.248 175.208 143.241 173.367 143.241 173.367L135.441 173.674L143.914 146.071Z" fill="#944441"/>
<path d="M151.465 167.628L153.291 164.943C153.233 165.083 153.144 165.208 153.03 165.309C152.916 165.409 152.78 165.482 152.633 165.522C150.12 166.212 138.092 170.003 131.1 181.046C123.258 193.43 115.094 213.708 111.83 227.575C108.567 241.443 102.039 268.904 99.1849 277.227C96.3309 285.549 91.4714 292.988 91.7172 296.997C91.7913 298.521 92.1368 300.021 92.7377 301.425C92.8118 301.592 92.931 301.735 93.0821 301.839C93.2331 301.943 93.4101 302.003 93.5933 302.012C93.7766 302.022 93.9588 301.98 94.1198 301.893C94.2808 301.805 94.4143 301.675 94.5054 301.516C98.1693 295.027 112.41 269.789 113.127 268.404L138.858 218.597L138.882 218.552C139.307 217.83 150.71 198.356 150.655 193.245C150.633 191.004 149.717 188.962 148.685 187.376C148.57 187.195 148.517 186.981 148.534 186.767C148.551 186.553 148.637 186.351 148.78 186.19C148.923 186.029 149.114 185.919 149.325 185.876C149.536 185.832 149.755 185.858 149.95 185.95L151.615 186.737C151.759 186.805 151.917 186.837 152.077 186.831C152.236 186.825 152.392 186.781 152.53 186.702C152.669 186.624 152.786 186.514 152.873 186.38C152.96 186.247 153.013 186.095 153.029 185.937L152.119 170.354C152.246 169.217 151.901 166.57 151.465 167.628Z" fill="#944441"/>
<path d="M158.574 182.231C157.367 163.021 143.753 152.995 143.753 152.995L143.858 145.351L137.412 142.11V142.098H137.399H137.387V142.11L130.94 145.351L131.044 152.995C131.044 152.995 117.43 163.021 116.223 182.231C115.015 201.44 115.793 212.619 115.793 212.619H159.002C159.002 212.619 159.783 201.448 158.574 182.231Z" fill="#EF5DA8"/>
<path opacity="0.1" d="M161.509 182.329C154.809 159.825 143.939 152.941 143.939 152.941L144.046 145.335L137.506 142.11V142.098H137.493H137.48V142.11L130.94 145.335L128.643 156.418C128.643 156.418 125.059 153.845 111.097 182.337C100.809 203.34 93.6949 256.323 93.6949 256.323L134.009 246.399C134.462 246.284 134.921 246.198 135.384 246.139C137.374 245.897 139.383 245.854 141.382 246.011C141.852 246.051 142.32 246.12 142.782 246.216L183.089 254.399C183.089 254.399 170.22 211.571 161.509 182.329Z" fill="#AEAFF7"/>
<path d="M138.888 103.36C143.003 103.36 146.338 100.025 146.338 95.9108C146.338 91.7965 143.003 88.4613 138.888 88.4613C134.774 88.4613 131.439 91.7965 131.439 95.9108C131.439 100.025 134.774 103.36 138.888 103.36Z" fill="#371B34"/>
<path d="M146.835 119.252C149.303 119.252 151.304 117.474 151.304 115.279C151.304 113.085 149.303 111.306 146.835 111.306C144.366 111.306 142.365 113.085 142.365 115.279C142.365 117.474 144.366 119.252 146.835 119.252Z" stroke="#EF5DA8" stroke-width="2.1" stroke-miterlimit="10"/>
<path d="M131.936 119.252C134.404 119.252 136.405 117.474 136.405 115.279C136.405 113.085 134.404 111.306 131.936 111.306C129.467 111.306 127.466 113.085 127.466 115.279C127.466 117.474 129.467 119.252 131.936 119.252Z" stroke="#EF5DA8" stroke-width="2.1" stroke-miterlimit="10"/>
<path d="M105.267 145.929C105.267 145.929 113.45 137.41 121.963 132.21C130.476 127.009 136.106 124.083 136.106 119.734C136.106 115.384 135.717 108.837 136.106 106.438C136.471 104.187 139.279 102.009 141.596 104.401C142.353 105.181 142.602 106.068 142.602 108.097V119.734C142.602 119.734 141.753 123.139 153.031 129.998C164.309 136.858 171.937 143.938 173.153 145.377C174.37 146.815 176.028 154.449 167.515 152.789C159.003 151.128 149.271 148.026 149.271 148.026C149.271 148.026 136.778 145.591 134.676 143.821C132.574 142.051 130.033 141.055 130.033 141.055C130.033 141.055 128.842 139.174 131.759 139.506C134.676 139.838 139.872 138.842 145.18 140.944C150.488 143.046 161.985 141.387 165.302 143.268L148.77 141.784L146.776 139.512L140.473 132.659L133.577 134.088L126.47 140.712L129.7 141.009C129.7 141.009 134.25 141.009 134.643 140.841C135.037 140.673 140.541 136.682 144.193 138.649C147.845 140.616 147.395 143.371 147.395 143.371C147.395 143.371 141.722 143.989 139.193 143.371C136.664 142.754 138.8 145.677 131.834 146.856C131.834 146.856 108.139 155.964 105.267 150.566C105.267 150.566 103.813 148.544 105.267 145.929Z" fill="#944441"/>
<path d="M148.069 132.709C146.712 129.335 148.631 127.199 148.631 127.199C148.631 127.199 146.781 128.518 145.369 129.732C143.507 131.333 139.666 131.396 139.666 131.396C131.397 131.741 128.721 127.743 128.721 127.743C128.721 127.743 128.806 131.652 126.092 134.226C123.122 137.044 125.147 141.13 125.328 141.608C125.468 141.631 129.393 141.542 129.393 141.542H129.701C129.541 141.235 128.819 139.707 131.477 140.013C132.801 140.166 134.59 140.046 136.643 140.06C138.695 139.001 141.74 137.874 144.05 139.132C145.727 140.044 146.547 141.12 146.938 142.025C147.732 142.039 148.527 142.063 149.322 142.098C149.632 141.478 149.888 140.832 150.086 140.167C150.879 136.45 149.428 136.083 148.069 132.709Z" fill="#EF5DA8"/>
<path d="M114.553 249.202C115.19 249.239 115.83 249.231 116.465 249.179C117.093 249.127 117.711 249.026 118.311 248.878C118.909 248.728 119.481 248.525 120.015 248.274C120.55 248.015 121.049 247.717 121.506 247.384C121.135 247.786 120.677 248.139 120.151 248.429C119.887 248.575 119.607 248.705 119.316 248.819C119.022 248.929 118.72 249.024 118.41 249.105C117.787 249.258 117.139 249.346 116.485 249.366C115.833 249.388 115.182 249.332 114.553 249.202V249.202Z" fill="#371B34"/>
<path d="M143.358 247.384C143.989 247.607 144.644 247.782 145.315 247.906C145.979 248.029 146.657 248.096 147.338 248.106C148.018 248.114 148.697 248.056 149.36 247.933C150.029 247.802 150.68 247.618 151.304 247.384C150.735 247.716 150.101 247.971 149.428 248.138C149.09 248.22 148.744 248.282 148.395 248.323C148.043 248.36 147.688 248.378 147.334 248.377C146.629 248.365 145.93 248.275 145.256 248.109C144.58 247.95 143.939 247.705 143.358 247.384V247.384Z" fill="#371B34"/>
<path d="M142.365 212.619L137.522 222.121L132.647 231.606L122.845 250.553C122.034 252.132 121.183 253.693 120.346 255.262L117.824 259.961L112.781 269.356L107.717 278.733L102.634 288.108L107.585 278.663L112.567 269.236L117.567 259.818L120.072 255.112C120.905 253.542 121.75 251.978 122.559 250.397L132.423 231.485L137.378 222.044L142.365 212.619Z" fill="#371B34"/>
<path d="M116.54 212.619C116.54 212.619 114.517 217.869 112.567 227.518Z" fill="#371B34"/>
<path d="M135.412 90.4479C136.017 90.543 136.607 90.7102 137.169 90.9455C137.739 91.1784 138.283 91.4654 138.793 91.8021C139.836 92.4878 140.706 93.3879 141.34 94.4367C141.965 95.4977 142.315 96.6874 142.36 97.9053C142.402 99.0918 142.183 100.274 141.718 101.374C141.793 100.243 141.747 99.1074 141.582 97.9852C141.409 96.9078 141.036 95.8689 140.48 94.9178C139.906 93.9715 139.175 93.1209 138.316 92.3993C137.427 91.6468 136.453 90.9922 135.412 90.4479V90.4479Z" fill="#83455E"/>
<path d="M138.392 88.4613C138.997 88.5647 139.586 88.7466 140.148 89.0025C140.718 89.2571 141.262 89.5707 141.772 89.9386C142.816 90.6852 143.687 91.6674 144.32 92.8127C144.946 93.9702 145.296 95.268 145.34 96.5966C145.381 97.891 145.163 99.18 144.698 100.38C144.773 99.1466 144.728 97.908 144.563 96.6838C144.39 95.509 144.017 94.3762 143.461 93.3392C142.888 92.3063 142.157 91.3783 141.298 90.5918C140.409 89.7701 139.434 89.0554 138.392 88.4613V88.4613Z" fill="#83455E"/>
<path d="M139.385 103.36C139.385 103.36 138.95 109.236 135.476 109.32C135.476 109.32 134.595 103.334 139.385 103.36Z" fill="#371B34"/>
<path d="M139.385 103.36C139.385 103.36 139.724 109.217 142.293 109.32C142.298 109.32 143.076 103.335 139.385 103.36Z" fill="#371B34"/>
<path d="M140.4 103.36C140.459 103.877 140.523 104.384 140.601 104.886C140.644 105.135 140.684 105.385 140.736 105.628C140.783 105.872 140.84 106.113 140.907 106.349C141.026 106.819 141.205 107.255 141.437 107.634C141.679 108.009 142.008 108.25 142.365 108.314C142.176 108.345 141.985 108.318 141.805 108.235C141.621 108.146 141.452 108.004 141.309 107.818C141.031 107.441 140.819 106.98 140.689 106.469C140.556 105.973 140.467 105.456 140.422 104.93C140.373 104.41 140.365 103.883 140.4 103.36V103.36Z" fill="#83455E"/>
<path d="M140.407 103.36C140.468 103.756 140.533 104.148 140.609 104.538C140.681 104.923 140.777 105.304 140.895 105.679C141.003 106.05 141.171 106.402 141.392 106.723C141.501 106.885 141.644 107.022 141.811 107.126C141.979 107.23 142.168 107.298 142.365 107.326C142.152 107.35 141.937 107.316 141.744 107.227C141.549 107.134 141.376 107.003 141.237 106.841C140.969 106.52 140.77 106.15 140.653 105.753C140.533 105.365 140.452 104.967 140.412 104.565C140.369 104.165 140.367 103.761 140.407 103.36Z" fill="#83455E"/>
<path d="M137.367 103.36C137.409 103.76 137.409 104.164 137.367 104.564C137.328 104.966 137.247 105.365 137.126 105.752C137.009 106.149 136.81 106.519 136.541 106.841C136.402 107.003 136.229 107.134 136.033 107.227C135.84 107.315 135.625 107.35 135.412 107.326C135.609 107.298 135.798 107.229 135.966 107.126C136.134 107.022 136.277 106.885 136.386 106.723C136.608 106.402 136.775 106.049 136.884 105.678C137.002 105.303 137.098 104.922 137.172 104.537C137.241 104.155 137.306 103.763 137.367 103.36Z" fill="#83455E"/>
<path d="M138.359 103.36C138.412 103.884 138.401 104.412 138.325 104.933C138.259 105.459 138.125 105.975 137.927 106.47C137.732 106.981 137.414 107.442 136.997 107.819C136.782 108.005 136.528 108.147 136.252 108.235C135.981 108.318 135.695 108.345 135.412 108.314C135.948 108.25 136.442 108.009 136.806 107.635C137.153 107.256 137.422 106.821 137.6 106.351C137.699 106.115 137.784 105.875 137.855 105.63C137.934 105.388 137.995 105.138 138.057 104.889C138.174 104.383 138.27 103.876 138.359 103.36Z" fill="#83455E"/>
<path d="M136.043 117.266C136.043 117.266 137.236 121.184 140.378 119.448C140.378 119.448 138.826 121.227 135.412 122.232C135.412 122.232 136.038 121.198 136.041 119.23L136.043 117.266Z" fill="#371B34"/>
<path d="M92.7014 301.02C92.9422 300.307 93.2769 299.638 93.6947 299.034C93.4532 299.746 93.1185 300.416 92.7014 301.02V301.02Z" fill="#371B34"/>
<path d="M92.7014 299.034C92.8188 298.677 92.9629 298.332 93.132 298.001C93.2944 297.666 93.4826 297.347 93.6947 297.047C93.5776 297.404 93.4335 297.748 93.2641 298.078C93.1009 298.413 92.9127 298.733 92.7014 299.034V299.034Z" fill="#371B34"/>
<path d="M91.7083 297.047C92.1917 296.335 92.861 295.665 93.6948 295.061C93.4599 295.418 93.1719 295.764 92.8336 296.095C92.5061 296.429 92.1297 296.748 91.7083 297.047Z" fill="#371B34"/>
<path d="M141.342 115.483C141.231 115.681 141.066 115.853 140.862 115.984C140.658 116.115 140.42 116.202 140.169 116.237C139.981 116.261 139.79 116.273 139.599 116.273C139.501 116.273 139.386 116.273 139.385 116.163C139.384 116.053 139.512 116.05 139.602 116.051C140.043 116.059 140.454 115.996 140.802 115.738C140.937 115.632 141.048 115.505 141.128 115.363C141.168 115.296 141.226 115.261 141.31 115.29C141.394 115.318 141.378 115.396 141.342 115.483Z" fill="#371B34"/>
<path d="M141.372 110.473C141.369 110.495 141.364 110.516 141.356 110.534C141.348 110.553 141.337 110.569 141.325 110.581C141.313 110.594 141.299 110.602 141.285 110.607C141.271 110.611 141.256 110.611 141.241 110.606C140.94 110.56 140.736 110.769 140.591 111.148C140.559 111.236 140.515 111.361 140.427 111.281C140.338 111.201 140.392 111.097 140.427 111.003C140.595 110.556 140.841 110.299 141.192 110.314C141.272 110.315 141.36 110.314 141.372 110.473Z" fill="#371B34"/>
<path d="M136.405 110.473C136.41 110.495 136.421 110.516 136.437 110.534C136.453 110.553 136.474 110.569 136.498 110.581C136.522 110.594 136.55 110.602 136.579 110.607C136.607 110.611 136.637 110.611 136.666 110.606C137.267 110.56 137.676 110.769 137.965 111.148C138.031 111.236 138.118 111.361 138.295 111.281C138.472 111.201 138.364 111.097 138.295 111.003C137.958 110.556 137.467 110.299 136.765 110.314C136.607 110.315 136.432 110.314 136.405 110.473Z" fill="#371B34"/>
<path d="M163.302 83.6563C192.154 95.6001 214.438 107.979 213.078 111.306C220.678 92.7537 203.45 68.0318 174.599 56.0881C145.748 44.1443 116.194 49.5016 108.594 68.0543C109.957 64.7266 134.451 71.7125 163.302 83.6563Z" fill="#EB258B"/>
<path d="M164.359 83.3967C168.485 85.0854 172.479 86.7821 176.29 88.4613C177.793 78.5998 178.655 66.2165 179.116 57.5021C177.998 56.9912 176.862 56.4989 175.706 56.0253C174.55 55.5516 173.395 55.1066 172.24 54.6902C166.389 61.1981 158.222 70.5944 152.298 78.6476C156.193 80.1213 160.23 81.7144 164.359 83.3967Z" fill="#F09A59"/>
<path d="M135.361 72.569C150.147 57.8018 167.96 54.3124 170.176 53.9268C164.395 51.8546 158.403 50.4448 152.311 49.7239C135.888 53.1397 123.499 60.8401 115.547 67.2397C120.101 67.9373 126.999 69.7996 135.361 72.569Z" fill="#F09A59"/>
<path d="M191.968 96.041C199.783 99.9848 206.015 103.558 209.907 106.34C208.686 96.041 205.203 81.6899 195.88 67.5101C191.003 63.6442 185.713 60.3435 180.109 57.67C181.426 59.5385 191.735 74.8368 191.968 96.041Z" fill="#F09A59"/>
<path d="M163.201 82.9629C134.434 71.075 110.012 64.1211 108.653 67.436C107.294 70.7508 129.512 83.0667 158.28 94.953C187.048 106.839 211.468 113.795 212.827 110.48C214.187 107.165 191.967 94.8476 163.201 82.9629Z" fill="#7879F1"/>
<path d="M164.399 83.7413L138.416 146.887L139.685 147.409L165.668 84.2642L164.399 83.7413Z" fill="#F3FCFF"/>
<path d="M140.742 152.651C143.469 153.728 146.573 152.386 147.686 149.705L148.221 148.423C148.361 148.083 148.359 147.702 148.216 147.363C148.073 147.025 147.799 146.755 147.456 146.615V146.615C147.111 146.476 146.725 146.478 146.382 146.62C146.038 146.762 145.766 147.032 145.623 147.371L145.08 148.673C144.832 149.28 144.354 149.768 143.747 150.033C143.14 150.298 142.452 150.318 141.83 150.09C141.516 149.971 141.23 149.791 140.987 149.561C140.745 149.332 140.552 149.057 140.419 148.752C140.286 148.448 140.216 148.12 140.213 147.789C140.21 147.457 140.274 147.128 140.402 146.822L143.827 138.615C143.862 138.532 143.88 138.442 143.88 138.352C143.879 138.261 143.861 138.172 143.826 138.089C143.791 138.005 143.739 137.93 143.674 137.866C143.609 137.802 143.532 137.752 143.447 137.718L142.133 137.183C142.048 137.149 141.958 137.131 141.866 137.131C141.775 137.131 141.684 137.149 141.6 137.184C141.515 137.219 141.438 137.269 141.374 137.333C141.309 137.397 141.258 137.473 141.223 137.557L137.798 145.763C137.531 146.406 137.395 147.094 137.399 147.789C137.402 148.484 137.545 149.171 137.818 149.811C138.092 150.451 138.491 151.031 138.993 151.519C139.494 152.006 140.089 152.391 140.742 152.651V152.651Z" fill="#7879F1"/>
<path d="M167.542 141.309C167.01 141.255 148.771 141.805 148.771 141.805C148.173 141.726 147.603 141.628 147.061 141.513C146.671 140.625 145.86 139.564 144.193 138.667C143.295 138.183 142.289 138.061 141.268 138.153L141.1 138.17C139.581 138.34 138.057 138.963 136.867 139.575C134.838 139.561 133.069 139.678 131.76 139.529C129.132 139.231 129.838 140.725 130.004 141.025H129.7L122.37 141.367C120.891 141.651 119.389 141.798 117.883 141.808C115.409 141.808 105.267 145.931 105.267 145.931C103.813 148.543 105.267 150.563 105.267 150.563C108.139 155.955 131.833 146.857 131.833 146.857C134.724 146.369 136.045 145.579 136.785 144.869C140.998 146.421 149.271 148.031 149.271 148.031C149.271 148.031 159.001 151.126 167.515 152.788C176.029 154.45 174.37 146.821 173.153 145.384C172.361 144.452 172.999 145.402 167.542 141.309ZM148.783 141.807L151.638 142.062C150.655 142.005 149.69 141.927 148.783 141.807Z" fill="#944441"/>
<path d="M125.479 141.158C123.855 141.176 122.237 141.351 120.644 141.681C119.055 142.008 117.497 142.484 115.989 143.101C114.477 143.706 113.059 144.514 111.643 145.366C110.935 145.786 110.227 146.205 109.527 146.64C109.176 146.855 108.827 147.074 108.484 147.302C108.313 147.416 108.144 147.534 107.978 147.659C107.895 147.719 107.815 147.784 107.738 147.852C107.7 147.886 107.664 147.924 107.633 147.965C107.624 147.974 107.618 147.985 107.614 147.997C107.61 148.009 107.608 148.021 107.608 148.034C107.618 148.058 107.651 148.058 107.673 148.056C107.651 148.056 107.618 148.065 107.602 148.037C107.6 148.023 107.6 148.009 107.603 147.996C107.607 147.982 107.613 147.969 107.621 147.959C107.649 147.913 107.683 147.871 107.721 147.834C107.792 147.757 107.869 147.685 107.947 147.615C108.11 147.478 108.272 147.35 108.435 147.223C108.761 146.972 109.102 146.729 109.441 146.491C110.123 146.019 110.815 145.566 111.511 145.123C112.208 144.68 112.908 144.244 113.627 143.838C113.982 143.621 114.361 143.457 114.731 143.27C115.1 143.084 115.481 142.928 115.87 142.766C117.398 142.142 118.984 141.687 120.601 141.408C122.212 141.121 123.85 141.037 125.479 141.158V141.158Z" fill="#371B34"/>
<path d="M130.446 141.104C131.117 141.631 131.821 142.112 132.552 142.544C133.278 142.98 134.026 143.377 134.791 143.733C135.557 144.085 136.335 144.404 137.131 144.675C137.927 144.947 138.738 145.163 139.551 145.396C140.364 145.629 141.175 145.85 141.988 146.069L144.431 146.731C146.062 147.165 147.691 147.607 149.318 148.057C147.663 147.738 146.014 147.383 144.37 146.99C142.727 146.598 141.092 146.176 139.465 145.726C138.652 145.493 137.841 145.258 137.033 144.983C136.236 144.692 135.454 144.356 134.693 143.976C133.16 143.222 131.731 142.256 130.446 141.104Z" fill="#371B34"/>
<path d="M137.399 140.111C138.542 140.353 139.689 140.586 140.842 140.791C141.995 140.996 143.148 141.199 144.309 141.346C144.889 141.418 145.471 141.481 146.053 141.54C146.635 141.598 147.214 141.627 147.803 141.645L151.332 141.77H151.318C152.498 141.737 153.674 141.728 154.85 141.733C156.027 141.738 157.206 141.756 158.381 141.819C159.556 141.881 160.732 141.963 161.9 142.112C162.484 142.187 163.062 142.291 163.632 142.424C163.918 142.491 164.198 142.574 164.471 142.672C164.746 142.769 164.997 142.911 165.21 143.091C164.988 142.923 164.731 142.794 164.452 142.713C164.178 142.625 163.897 142.553 163.612 142.497C163.04 142.386 162.461 142.304 161.879 142.251C160.715 142.13 159.545 142.071 158.37 142.037C157.195 142.003 156.024 141.987 154.85 141.993C153.677 141.998 152.502 142.014 151.332 142.054H151.318L147.791 141.904C146.609 141.86 145.432 141.746 144.268 141.562C143.106 141.384 141.951 141.167 140.806 140.927C139.661 140.686 138.524 140.416 137.399 140.111Z" fill="#371B34"/>
</g>
</svg>
