<svg width="40" height="37" viewBox="0 0 40 37" fill="none" xmlns="http://www.w3.org/2000/svg">
<path d="M34.8404 19.9239C33.7348 19.3655 32.5063 19.0752 31.3002 19.0752C28.6757 19.0752 26.4645 20.4377 25.5264 22.6266C24.7781 24.3688 24.8786 27.0156 25.7609 28.6349C26.3305 29.6847 27.6148 30.8015 29.5357 30.8015C29.9154 30.8015 30.3063 30.7569 30.6971 30.6787C31.7581 30.4553 33.2546 28.8695 33.612 27.6075C33.88 26.6582 32.8525 25.0389 31.7916 24.2794C31.7134 24.2236 31.6241 24.2236 31.5571 24.2236C31.423 24.2236 30.753 24.2459 30.4291 24.6592C30.3174 24.7932 30.1946 25.0389 30.2727 25.3962L30.2951 25.4856L30.3621 25.5414C31.0433 26.2003 31.4007 26.9933 31.2555 27.5181C31.155 27.8755 30.8423 28.1212 30.3174 28.2552C29.8149 28.1659 29.1001 27.7415 28.8544 27.44C28.3965 26.8704 27.9833 25.4744 28.1732 24.715C28.5082 23.3748 29.8707 22.4367 31.5012 22.4367C32.6292 22.4367 33.6343 22.917 34.2597 23.7546C35.2872 25.1394 36.0242 27.775 35.4212 29.0817C34.6729 30.7234 32.5845 32.4321 30.5631 33.0575C30.0494 33.2138 29.5245 33.292 29.0219 33.292C27.0564 33.292 25.1355 32.0747 23.6278 29.8746C21.8074 27.2278 21.7069 24.447 23.3263 21.8113C24.0075 20.7169 24.9456 19.7341 25.8614 18.7848C26.297 18.3381 26.7437 17.8802 27.1569 17.4111C29.9824 14.2059 30.6636 10.5094 29.2006 6.41072C27.9498 2.89281 25.1913 0.737395 21.2267 0.156661C20.8582 0.100822 20.4896 0.0784912 20.1211 0.0784912C16.6255 0.0784912 13.2863 2.33442 12.002 5.55079C10.6953 8.823 11.7116 12.3967 14.5259 14.4516C15.5981 15.2334 16.9829 15.6578 18.4124 15.6578C20.2774 15.6578 21.9861 14.9207 23.0136 13.6811C25.0015 11.2688 24.9903 8.53263 22.9689 6.72342C22.2877 6.10919 21.1039 5.88583 20.2216 5.88583C19.7749 5.88583 19.384 5.94167 19.0825 6.03101C18.39 6.25437 16.8824 7.66153 16.8712 8.56614C16.8712 8.91234 17.0611 9.18037 17.4184 9.30322L17.4743 9.32556H17.5301C17.6753 9.32556 17.7646 9.23621 17.9322 9.07986C18.2784 8.74482 19.0043 8.06358 19.9982 8.06358C20.3668 8.06358 20.7577 8.16409 21.1374 8.35394C21.4612 8.52146 21.5282 8.92351 21.5394 9.15804C21.5729 9.96213 21.0592 11.1236 20.1546 11.6708C19.652 11.9724 18.8814 12.1622 18.1444 12.1622C17.72 12.1622 17.3291 12.1064 17.0276 11.9835C15.9554 11.5815 15.2183 10.7215 14.928 9.54891C14.5706 8.08591 15.0173 6.44422 16.0783 5.26042C17.1392 4.08778 18.6134 3.44004 20.2328 3.44004C22.2095 3.44004 24.108 4.42282 25.303 6.07568C26.8554 8.20876 27.0899 10.9561 25.9284 13.413C24.7558 15.9146 22.4217 17.5005 19.6967 17.668C19.5068 17.6792 19.3058 17.6792 19.1048 17.6792C17.653 17.6792 16.1453 17.3777 14.6935 17.0873C13.733 16.8974 12.7391 16.6964 11.7674 16.5847C11.3654 16.5401 10.9522 16.5177 10.5501 16.5177C5.39055 16.5177 0.9457 20.2925 0.197447 25.2846C-0.52847 30.1538 2.73257 34.7215 7.62414 35.6931C8.12669 35.7936 8.65159 35.8494 9.15415 35.8494C12.4599 35.8494 15.33 33.7945 16.458 30.6117C17.6306 27.3171 16.2681 23.8886 13.3533 22.8053C12.7056 22.5708 11.935 22.4479 11.1085 22.4479C9.99174 22.4479 8.88612 22.6713 7.98151 23.0621C6.84238 23.5647 5.83727 25.4968 5.97128 26.9486C6.1388 28.8918 7.07691 29.372 7.97034 29.8299L8.07085 29.8858C8.38356 30.0421 8.96429 30.232 9.57853 30.232C10.5278 30.232 11.1532 29.7964 11.3319 29.0035L11.3431 28.97C11.4771 27.6968 10.4161 27.1608 9.71255 26.7922C9.48919 26.6806 9.10948 26.4907 9.08714 26.3902C9.08714 26.245 9.38867 26.1445 9.81306 26.1445C10.807 26.1445 12.1472 26.6471 12.5045 27.3618C12.9513 28.2776 13.0629 29.8076 12.3817 30.835C11.6111 31.9853 10.5836 32.5661 9.29933 32.5661C8.33889 32.5661 7.25559 32.2199 6.1723 31.5833C3.62601 30.0644 2.74374 26.58 4.19558 23.8104C5.64741 21.0407 8.09319 19.6671 11.2202 19.8569C14.6376 20.058 17.1616 21.9453 18.5352 25.3181C18.8479 26.0998 19.0825 26.9374 19.3058 27.7415C19.5962 28.8136 19.9089 29.9193 20.4114 30.9244C22.2542 34.5763 25.504 36.5865 29.5692 36.5865C29.7143 36.5865 29.8707 36.5865 30.0159 36.5754C34.2374 36.4302 37.2862 34.2859 38.8162 30.3771C40.3574 26.4237 38.6152 21.8337 34.8404 19.9239Z" fill="white"/>
</svg>
